<svg width="23" height="23" viewBox="0 0 23 23" fill="none" xmlns="http://www.w3.org/2000/svg">
<path d="M21.6581 6.47448C22.8723 9.01395 23.1028 11.9132 22.3051 14.6126C21.5074 17.312 19.7381 19.6203 17.3386 21.0919C14.9391 22.5635 12.0796 23.0941 9.31184 22.5814C6.54411 22.0686 4.06443 20.5488 2.35137 18.3153C0.638303 16.0818 -0.186703 13.2929 0.0355753 10.4868C0.257854 7.6808 1.51166 5.05656 3.55501 3.1206C5.59835 1.18465 8.28639 0.0742006 11.1003 0.00358657C13.9143 -0.0670275 16.6546 0.907195 18.7925 2.73823L21.272 0.257603C21.4362 0.0934178 21.6589 0.00117934 21.8911 0.00117934C22.1233 0.00117934 22.346 0.0934178 22.5101 0.257603C22.6743 0.421789 22.7666 0.644472 22.7666 0.876666C22.7666 1.10886 22.6743 1.33154 22.5101 1.49573L12.0101 11.9957C11.846 12.1599 11.6233 12.2522 11.3911 12.2522C11.1589 12.2522 10.9362 12.1599 10.772 11.9957C10.6078 11.8315 10.5156 11.6089 10.5156 11.3767C10.5156 11.1445 10.6078 10.9218 10.772 10.7576L13.8039 7.72573C12.9822 7.1823 12.0012 6.93209 11.0196 7.01561C10.038 7.09912 9.11337 7.51147 8.39531 8.18589C7.67725 8.86032 7.20782 9.75735 7.06302 10.7318C6.91821 11.7062 7.10651 12.701 7.59742 13.555C8.08834 14.4091 8.85314 15.0725 9.76801 15.4379C10.6829 15.8032 11.6943 15.8491 12.6385 15.5681C13.5827 15.2871 14.4044 14.6956 14.9706 13.8895C15.5368 13.0834 15.8144 12.1097 15.7584 11.1262C15.752 11.0113 15.7682 10.8962 15.8062 10.7876C15.8442 10.679 15.9032 10.5789 15.9799 10.4931C16.0566 10.4072 16.1494 10.3374 16.2531 10.2874C16.3568 10.2375 16.4693 10.2084 16.5842 10.202C16.8163 10.1889 17.044 10.2686 17.2173 10.4235C17.3032 10.5001 17.373 10.593 17.423 10.6967C17.4729 10.8003 17.502 10.9129 17.5084 11.0278C17.5882 12.4199 17.1906 13.7975 16.3813 14.933C15.572 16.0685 14.3995 16.8939 13.0576 17.2728C11.7157 17.6516 10.2846 17.5612 9.00101 17.0166C7.71739 16.4719 6.65804 15.5056 5.99803 14.2773C5.33803 13.049 5.11688 11.6323 5.37114 10.2613C5.62541 8.89028 6.33986 7.64706 7.39641 6.73712C8.45297 5.82717 9.78838 5.30497 11.1819 5.25682C12.5755 5.20866 13.9438 5.63745 15.0606 6.47229L17.5489 3.98401C15.7254 2.47004 13.4068 1.68316 11.0385 1.7745C8.6702 1.86584 6.41913 2.82897 4.71766 4.47889C3.01619 6.12882 1.98429 8.34921 1.82016 10.7136C1.65602 13.078 2.37123 15.4196 3.82841 17.2888C5.28559 19.158 7.38199 20.423 9.71497 20.8407C12.0479 21.2584 14.453 20.7994 16.4682 19.5519C18.4834 18.3044 19.9666 16.3563 20.633 14.0819C21.2995 11.8074 21.1021 9.36694 20.0787 7.22917C19.9787 7.01973 19.9659 6.77911 20.0432 6.56025C20.1205 6.34139 20.2816 6.16221 20.4911 6.06213C20.7005 5.96206 20.9411 5.94928 21.16 6.02661C21.3789 6.10394 21.558 6.26504 21.6581 6.47448Z" fill="#566FE9"/>
</svg>
