<svg width="24" height="24" viewBox="0 0 24 24" fill="none" xmlns="http://www.w3.org/2000/svg">
<path d="M12 0.625C9.75024 0.625 7.551 1.29213 5.68039 2.54203C3.80978 3.79193 2.35182 5.56847 1.49088 7.64698C0.629929 9.72548 0.404666 12.0126 0.843573 14.2192C1.28248 16.4257 2.36584 18.4525 3.95667 20.0433C5.54749 21.6342 7.57432 22.7175 9.78085 23.1564C11.9874 23.5953 14.2745 23.3701 16.353 22.5091C18.4315 21.6482 20.2081 20.1902 21.458 18.3196C22.7079 16.449 23.375 14.2498 23.375 12C23.3718 8.98414 22.1724 6.09271 20.0398 3.96018C17.9073 1.82764 15.0159 0.628185 12 0.625ZM12 21.625C10.0964 21.625 8.23546 21.0605 6.65264 20.0029C5.06982 18.9453 3.83616 17.4421 3.10766 15.6833C2.37917 13.9246 2.18856 11.9893 2.55995 10.1223C2.93133 8.25519 3.84802 6.54018 5.1941 5.1941C6.54018 3.84802 8.25519 2.93132 10.1223 2.55994C11.9893 2.18856 13.9246 2.37917 15.6833 3.10766C17.4421 3.83615 18.9453 5.06981 20.0029 6.65264C21.0605 8.23546 21.625 10.0964 21.625 12C21.6221 14.5518 20.6071 16.9983 18.8027 18.8027C16.9983 20.6071 14.5518 21.6221 12 21.625ZM6.75 9.8125C6.75 9.55291 6.82698 9.29915 6.9712 9.08331C7.11542 8.86747 7.32041 8.69925 7.56023 8.59991C7.80006 8.50057 8.06396 8.47458 8.31856 8.52522C8.57316 8.57586 8.80703 8.70087 8.99058 8.88442C9.17414 9.06798 9.29914 9.30184 9.34979 9.55644C9.40043 9.81104 9.37444 10.0749 9.2751 10.3148C9.17576 10.5546 9.00753 10.7596 8.79169 10.9038C8.57585 11.048 8.32209 11.125 8.0625 11.125C7.71441 11.125 7.38057 10.9867 7.13443 10.7406C6.88829 10.4944 6.75001 10.1606 6.75 9.8125ZM17.25 9.8125C17.25 10.0721 17.173 10.3258 17.0288 10.5417C16.8846 10.7575 16.6796 10.9258 16.4398 11.0251C16.1999 11.1244 15.936 11.1504 15.6814 11.0998C15.4268 11.0491 15.193 10.9241 15.0094 10.7406C14.8259 10.557 14.7009 10.3232 14.6502 10.0686C14.5996 9.81396 14.6256 9.55006 14.7249 9.31023C14.8243 9.0704 14.9925 8.86542 15.2083 8.7212C15.4242 8.57698 15.6779 8.5 15.9375 8.5C16.2856 8.5 16.6194 8.63828 16.8656 8.88442C17.1117 9.13056 17.25 9.4644 17.25 9.8125ZM17.133 15.0625C16.0075 17.0083 14.1361 18.125 12 18.125C9.86391 18.125 7.9936 17.0094 6.86813 15.0625C6.80482 14.9629 6.76231 14.8515 6.74316 14.7351C6.724 14.6187 6.7286 14.4995 6.75668 14.3849C6.78476 14.2703 6.83573 14.1625 6.90653 14.0681C6.97733 13.9737 7.0665 13.8946 7.16867 13.8355C7.27084 13.7765 7.3839 13.7387 7.50105 13.7245C7.6182 13.7102 7.73701 13.7199 7.85035 13.7527C7.96369 13.7856 8.0692 13.8411 8.16055 13.9158C8.25189 13.9905 8.32718 14.0829 8.38188 14.1875C9.19891 15.5995 10.483 16.375 12 16.375C13.517 16.375 14.8011 15.5984 15.617 14.1875C15.7331 13.9865 15.9242 13.8398 16.1484 13.7797C16.3726 13.7196 16.6115 13.751 16.8125 13.867C17.0135 13.9831 17.1602 14.1742 17.2203 14.3984C17.2804 14.6226 17.249 14.8615 17.133 15.0625Z" fill="#566FE9"/>
</svg>
