<svg width="28" height="28" viewBox="0 0 28 28" fill="none" xmlns="http://www.w3.org/2000/svg">
<path d="M12.5065 16.8801L23.0065 6.38008C23.0878 6.29879 23.1844 6.2343 23.2906 6.1903C23.3968 6.14631 23.5106 6.12366 23.6256 6.12366C23.7406 6.12366 23.8544 6.14631 23.9606 6.1903C24.0669 6.2343 24.1634 6.29879 24.2447 6.38008C24.326 6.46138 24.3905 6.55789 24.4345 6.66411C24.4785 6.77033 24.5011 6.88418 24.5011 6.99915C24.5011 7.11412 24.4785 7.22796 24.4345 7.33418C24.3905 7.4404 24.326 7.53691 24.2447 7.61821L13.7447 18.1182C13.6634 18.1995 13.5669 18.264 13.4606 18.308C13.3544 18.352 13.2406 18.3746 13.1256 18.3746C13.0106 18.3746 12.8968 18.352 12.7906 18.308C12.6844 18.264 12.5878 18.1995 12.5065 18.1182C12.4253 18.0369 12.3608 17.9404 12.3168 17.8342C12.2728 17.728 12.2501 17.6141 12.2501 17.4991C12.2501 17.3842 12.2728 17.2703 12.3168 17.1641C12.3608 17.0579 12.4253 16.9614 12.5065 16.8801ZM14.0006 9.62415C14.7607 9.62318 15.5158 9.74621 16.2362 9.98837C16.3456 10.0271 16.4616 10.0438 16.5775 10.0373C16.6934 10.0308 16.8068 10.0013 16.9112 9.95061C17.0156 9.89987 17.1088 9.82887 17.1855 9.74175C17.2621 9.65463 17.3207 9.55313 17.3578 9.44315C17.3949 9.33317 17.4097 9.21692 17.4014 9.10116C17.3931 8.98541 17.3619 8.87245 17.3095 8.76888C17.2571 8.66531 17.1847 8.57319 17.0964 8.49788C17.0081 8.42258 16.9057 8.36559 16.7951 8.33024C15.4007 7.86015 13.9103 7.74932 12.4617 8.00799C11.0131 8.26666 9.65317 8.88649 8.50765 9.81012C7.36213 10.7338 6.46804 11.9314 5.90811 13.2922C5.34817 14.653 5.14046 16.133 5.30421 17.5954C5.32788 17.8093 5.42953 18.0069 5.58973 18.1506C5.74994 18.2942 5.95746 18.3738 6.17264 18.3741C6.20436 18.3741 6.23717 18.3741 6.26999 18.3687C6.50058 18.3431 6.71159 18.227 6.8566 18.0459C7.00161 17.8648 7.06875 17.6335 7.04327 17.4029C7.01479 17.1443 7.00055 16.8843 7.00061 16.6241C7.00264 14.7683 7.74079 12.989 9.0531 11.6766C10.3654 10.3643 12.1447 9.62617 14.0006 9.62415ZM24.9097 11.046C24.8573 10.9438 24.7852 10.8528 24.6976 10.7784C24.6101 10.704 24.5087 10.6475 24.3993 10.6123C24.2899 10.577 24.1747 10.5637 24.0601 10.573C23.9456 10.5823 23.834 10.6141 23.7317 10.6665C23.6294 10.7189 23.5385 10.791 23.4641 10.8785C23.3897 10.9661 23.3332 11.0675 23.298 11.1769C23.2627 11.2863 23.2494 11.4015 23.2587 11.5161C23.268 11.6306 23.2997 11.7422 23.3522 11.8445C23.9995 13.1157 24.3818 14.5052 24.4758 15.9287C24.5698 17.3522 24.3736 18.7799 23.899 20.1252L4.09124 20.1176C3.53859 18.5334 3.37263 16.8401 3.60718 15.1788C3.84173 13.5175 4.47 11.9363 5.43962 10.5671C6.40924 9.19784 7.69211 8.08022 9.18129 7.30737C10.6705 6.53452 12.3228 6.12884 14.0006 6.12415H14.0969C15.7265 6.13439 17.3308 6.5278 18.7803 7.27258C18.8828 7.32902 18.9957 7.36431 19.1121 7.37636C19.2285 7.38841 19.3462 7.37698 19.4581 7.34274C19.5701 7.30851 19.674 7.25216 19.7638 7.17704C19.8535 7.10192 19.9273 7.00955 19.9807 6.9054C20.0342 6.80125 20.0661 6.68745 20.0748 6.57071C20.0835 6.45398 20.0686 6.3367 20.0311 6.22582C19.9936 6.11493 19.9343 6.01269 19.8566 5.92515C19.7789 5.83761 19.6844 5.76655 19.5787 5.71618C17.3967 4.5985 14.9294 4.16129 12.4962 4.46109C10.0629 4.76089 7.77556 5.78391 5.93004 7.39783C4.08453 9.01174 2.76573 11.1423 2.14426 13.5139C1.52278 15.8855 1.62721 18.389 2.44405 20.7006C2.56471 21.043 2.78848 21.3397 3.08461 21.5499C3.38074 21.76 3.73468 21.8733 4.0978 21.8741H23.9023C24.2653 21.8744 24.6193 21.7617 24.9154 21.5519C25.2115 21.342 25.435 21.0453 25.555 20.7027C26.1069 19.1331 26.3342 17.4677 26.2233 15.8076C26.1124 14.1475 25.6655 12.5272 24.9097 11.0449V11.046Z" fill="#566FE9"/>
</svg>
