<svg width="21" height="21" viewBox="0 0 21 21" fill="none" xmlns="http://www.w3.org/2000/svg">
<path d="M17.375 3.625H3.625C3.29348 3.625 2.97554 3.7567 2.74112 3.99112C2.5067 4.22554 2.375 4.54348 2.375 4.875V16.125C2.375 16.4565 2.5067 16.7745 2.74112 17.0089C2.97554 17.2433 3.29348 17.375 3.625 17.375H17.375C17.7065 17.375 18.0245 17.2433 18.2589 17.0089C18.4933 16.7745 18.625 16.4565 18.625 16.125V4.875C18.625 4.54348 18.4933 4.22554 18.2589 3.99112C18.0245 3.7567 17.7065 3.625 17.375 3.625ZM17.375 4.875V7.375H3.625V4.875H17.375ZM17.375 16.125H3.625V8.625H17.375V16.125Z" fill="white"/>
</svg>
