<svg width="25" height="22" viewBox="0 0 25 22" fill="none" xmlns="http://www.w3.org/2000/svg">
<path d="M24.111 0.776406C24.0317 0.65323 23.9228 0.551931 23.7942 0.481798C23.6656 0.411665 23.5214 0.374943 23.3749 0.375H14.6249C14.457 0.375066 14.2926 0.423468 14.1514 0.514429C14.0102 0.605389 13.8982 0.735063 13.8287 0.887969L12.8684 3H1.06242C0.892926 3.00002 0.727089 3.04926 0.585055 3.14174C0.443021 3.23422 0.330903 3.36596 0.262325 3.52096C0.193746 3.67596 0.17166 3.84753 0.198748 4.01485C0.225836 4.18216 0.300934 4.338 0.414916 4.46344L4.25507 8.6875L0.414916 12.9116C0.300934 13.037 0.225836 13.1928 0.198748 13.3602C0.17166 13.5275 0.193746 13.699 0.262325 13.854C0.330903 14.009 0.443021 14.1408 0.585055 14.2333C0.727089 14.3257 0.892926 14.375 1.06242 14.375H9.05663C9.22459 14.3749 9.38898 14.3265 9.53017 14.2356C9.67136 14.1446 9.78339 14.0149 9.85288 13.862L10.8132 11.75H17.6415L13.8287 20.138C13.7775 20.243 13.7478 20.3573 13.7415 20.474C13.7352 20.5907 13.7524 20.7075 13.7919 20.8174C13.8315 20.9274 13.8927 21.0283 13.9719 21.1143C14.0511 21.2002 14.1467 21.2694 14.2531 21.3178C14.3595 21.3661 14.4745 21.3927 14.5913 21.3959C14.7081 21.3991 14.8244 21.3789 14.9333 21.3364C15.0422 21.2939 15.1414 21.23 15.2252 21.1486C15.309 21.0671 15.3756 20.9697 15.4212 20.862L24.1712 1.61203C24.2318 1.47883 24.2581 1.33254 24.2476 1.18655C24.2371 1.04056 24.1901 0.899545 24.111 0.776406ZM8.49335 12.625H3.03992L6.08492 9.27594C6.23125 9.11489 6.31233 8.9051 6.31233 8.6875C6.31233 8.4699 6.23125 8.26011 6.08492 8.09906L3.03992 4.75H12.0732L8.49335 12.625ZM18.4366 10H11.6084L15.1882 2.125H22.0165L18.4366 10Z" fill="#566FE9"/>
</svg>
