<svg width="28" height="28" viewBox="0 0 28 28" fill="none" xmlns="http://www.w3.org/2000/svg">
<path d="M26.111 4.77641C26.0317 4.65323 25.9228 4.55193 25.7942 4.4818C25.6656 4.41166 25.5214 4.37494 25.3749 4.375H16.6249C16.457 4.37507 16.2926 4.42347 16.1514 4.51443C16.0102 4.60539 15.8982 4.73506 15.8287 4.88797L14.8684 7H3.06242C2.89293 7.00002 2.72709 7.04926 2.58505 7.14174C2.44302 7.23422 2.3309 7.36596 2.26232 7.52096C2.19375 7.67596 2.17166 7.84753 2.19875 8.01485C2.22584 8.18216 2.30093 8.338 2.41492 8.46344L6.25507 12.6875L2.41492 16.9116C2.30093 17.037 2.22584 17.1928 2.19875 17.3602C2.17166 17.5275 2.19375 17.699 2.26232 17.854C2.3309 18.009 2.44302 18.1408 2.58505 18.2333C2.72709 18.3257 2.89293 18.375 3.06242 18.375H11.0566C11.2246 18.3749 11.389 18.3265 11.5302 18.2356C11.6714 18.1446 11.7834 18.0149 11.8529 17.862L12.8132 15.75H19.6415L15.8287 24.138C15.7775 24.243 15.7478 24.3573 15.7415 24.474C15.7352 24.5907 15.7524 24.7075 15.7919 24.8174C15.8315 24.9274 15.8927 25.0283 15.9719 25.1143C16.0511 25.2002 16.1467 25.2694 16.2531 25.3178C16.3595 25.3661 16.4745 25.3927 16.5913 25.3959C16.7081 25.3991 16.8244 25.3789 16.9333 25.3364C17.0422 25.2939 17.1414 25.23 17.2252 25.1486C17.309 25.0671 17.3756 24.9697 17.4212 24.862L26.1712 5.61203C26.2318 5.47883 26.2581 5.33254 26.2476 5.18655C26.2371 5.04056 26.1901 4.89955 26.111 4.77641ZM10.4934 16.625H5.03992L8.08492 13.2759C8.23125 13.1149 8.31233 12.9051 8.31233 12.6875C8.31233 12.4699 8.23125 12.2601 8.08492 12.0991L5.03992 8.75H14.0732L10.4934 16.625ZM20.4366 14H13.6084L17.1882 6.125H24.0165L20.4366 14Z" fill="#566FE9"/>
</svg>
