<svg width="25" height="22" viewBox="0 0 25 22" fill="none" xmlns="http://www.w3.org/2000/svg">
<path d="M23.9235 0.401406C23.8442 0.27823 23.7353 0.176931 23.6067 0.106798C23.4781 0.036665 23.3339 -5.68049e-05 23.1874 6.59562e-08H14.4374C14.2695 6.56654e-05 14.1051 0.0484683 13.9639 0.139429C13.8227 0.230389 13.7107 0.360063 13.6412 0.512969L12.6809 2.625H0.874916C0.705426 2.62502 0.539589 2.67426 0.397555 2.76674C0.255521 2.85922 0.143403 2.99096 0.0748247 3.14596C0.00624645 3.30096 -0.0158403 3.47253 0.011248 3.63985C0.0383364 3.80716 0.113434 3.963 0.227416 4.08844L4.06757 8.3125L0.227416 12.5366C0.113434 12.662 0.0383364 12.8178 0.011248 12.9852C-0.0158403 13.1525 0.00624645 13.324 0.0748247 13.479C0.143403 13.634 0.255521 13.7658 0.397555 13.8583C0.539589 13.9507 0.705426 14 0.874916 14H8.86913C9.03709 13.9999 9.20148 13.9515 9.34267 13.8606C9.48386 13.7696 9.59589 13.6399 9.66538 13.487L10.6257 11.375H17.454L13.6412 19.763C13.59 19.868 13.5603 19.9823 13.554 20.099C13.5477 20.2157 13.5649 20.3325 13.6044 20.4424C13.644 20.5524 13.7052 20.6533 13.7844 20.7393C13.8636 20.8252 13.9592 20.8944 14.0656 20.9428C14.172 20.9911 14.287 21.0177 14.4038 21.0209C14.5206 21.0241 14.6369 21.0039 14.7458 20.9614C14.8547 20.9189 14.9539 20.855 15.0377 20.7736C15.1215 20.6921 15.1881 20.5947 15.2337 20.487L23.9837 1.23703C24.0443 1.10383 24.0706 0.957538 24.0601 0.811551C24.0496 0.665564 24.0026 0.524545 23.9235 0.401406ZM8.30585 12.25H2.85242L5.89742 8.90094C6.04375 8.73989 6.12483 8.5301 6.12483 8.3125C6.12483 8.0949 6.04375 7.88511 5.89742 7.72406L2.85242 4.375H11.8857L8.30585 12.25ZM18.2491 9.625H11.4209L15.0007 1.75H21.829L18.2491 9.625Z" fill="#566FE9"/>
</svg>
