<svg width="24" height="24" viewBox="0 0 24 24" fill="none" xmlns="http://www.w3.org/2000/svg">
<path d="M22.2675 7.09557C23.4817 9.63504 23.7122 12.5343 22.9145 15.2337C22.1168 17.9331 20.3475 20.2414 17.948 21.713C15.5485 23.1846 12.6889 23.7152 9.92121 23.2025C7.15349 22.6897 4.67381 21.1699 2.96074 18.9364C1.24768 16.7029 0.422672 13.9139 0.64495 11.1079C0.867229 8.30189 2.12103 5.67766 4.16438 3.7417C6.20773 1.80574 8.89577 0.695294 11.7097 0.62468C14.5236 0.554066 17.264 1.52829 19.4019 3.35932L21.8814 0.878697C22.0456 0.714512 22.2683 0.622273 22.5005 0.622273C22.7326 0.622273 22.9553 0.714512 23.1195 0.878697C23.2837 1.04288 23.3759 1.26557 23.3759 1.49776C23.3759 1.72995 23.2837 1.95264 23.1195 2.11682L12.6195 12.6168C12.4553 12.781 12.2326 12.8732 12.0005 12.8732C11.7683 12.8732 11.5456 12.781 11.3814 12.6168C11.2172 12.4526 11.125 12.23 11.125 11.9978C11.125 11.7656 11.2172 11.5429 11.3814 11.3787L14.4133 8.34682C13.5916 7.8034 12.6106 7.55319 11.629 7.6367C10.6474 7.72021 9.72275 8.13256 9.00469 8.80699C8.28663 9.48141 7.8172 10.3784 7.67239 11.3529C7.52759 12.3273 7.71588 13.3221 8.2068 14.1761C8.69771 15.0302 9.46251 15.6936 10.3774 16.059C11.2923 16.4243 12.3037 16.4702 13.2478 16.1892C14.192 15.9082 15.0138 15.3167 15.58 14.5106C16.1462 13.7045 16.4238 12.7308 16.3678 11.7473C16.3613 11.6324 16.3776 11.5173 16.4156 11.4087C16.4536 11.3001 16.5126 11.2 16.5893 11.1142C16.666 11.0283 16.7588 10.9585 16.8625 10.9085C16.9662 10.8586 17.0787 10.8295 17.1936 10.8231C17.4256 10.81 17.6534 10.8897 17.8267 11.0446C17.9125 11.1212 17.9824 11.2141 18.0324 11.3178C18.0823 11.4214 18.1113 11.5339 18.1178 11.6489C18.1976 13.041 17.8 14.4186 16.9907 15.5541C16.1814 16.6896 15.0089 17.515 13.667 17.8939C12.325 18.2727 10.894 18.1823 9.61038 17.6377C8.32677 17.093 7.26741 16.1267 6.60741 14.8984C5.9474 13.6701 5.72626 12.2534 5.98052 10.8824C6.23478 9.51137 6.94923 8.26816 8.00579 7.35821C9.06235 6.44827 10.3978 5.92606 11.7913 5.87791C13.1849 5.82976 14.5531 6.25854 15.67 7.09338L18.1583 4.6051C16.3348 3.09113 14.0162 2.30425 11.6479 2.39559C9.27957 2.48694 7.0285 3.45006 5.32703 5.09999C3.62556 6.74991 2.59366 8.9703 2.42953 11.3347C2.2654 13.6991 2.9806 16.0407 4.43778 17.9099C5.89496 19.7791 7.99136 21.0441 10.3243 21.4618C12.6573 21.8795 15.0624 21.4205 17.0776 20.173C19.0928 18.9255 20.576 16.9774 21.2424 14.703C21.9088 12.4285 21.7114 9.98804 20.6881 7.85026C20.588 7.64082 20.5753 7.40021 20.6526 7.18134C20.7299 6.96248 20.891 6.78331 21.1005 6.68323C21.3099 6.58315 21.5505 6.57037 21.7694 6.6477C21.9882 6.72503 22.1674 6.88613 22.2675 7.09557Z" fill="#566FE9"/>
</svg>
