<svg width="22" height="22" viewBox="0 0 22 22" fill="none" xmlns="http://www.w3.org/2000/svg">
<path d="M20.1744 8.63937C19.8209 8.27 19.4553 7.88938 19.3175 7.55469C19.19 7.24813 19.1825 6.74 19.175 6.24781C19.1609 5.33281 19.1459 4.29594 18.425 3.575C17.7041 2.85406 16.6672 2.83906 15.7522 2.825C15.26 2.8175 14.7519 2.81 14.4453 2.6825C14.1116 2.54469 13.73 2.17906 13.3606 1.82562C12.7137 1.20406 11.9788 0.5 11 0.5C10.0212 0.5 9.28719 1.20406 8.63937 1.82562C8.27 2.17906 7.88938 2.54469 7.55469 2.6825C7.25 2.81 6.74 2.8175 6.24781 2.825C5.33281 2.83906 4.29594 2.85406 3.575 3.575C2.85406 4.29594 2.84375 5.33281 2.825 6.24781C2.8175 6.74 2.81 7.24813 2.6825 7.55469C2.54469 7.88844 2.17906 8.27 1.82562 8.63937C1.20406 9.28625 0.5 10.0212 0.5 11C0.5 11.9788 1.20406 12.7128 1.82562 13.3606C2.17906 13.73 2.54469 14.1106 2.6825 14.4453C2.81 14.7519 2.8175 15.26 2.825 15.7522C2.83906 16.6672 2.85406 17.7041 3.575 18.425C4.29594 19.1459 5.33281 19.1609 6.24781 19.175C6.74 19.1825 7.24813 19.19 7.55469 19.3175C7.88844 19.4553 8.27 19.8209 8.63937 20.1744C9.28625 20.7959 10.0212 21.5 11 21.5C11.9788 21.5 12.7128 20.7959 13.3606 20.1744C13.73 19.8209 14.1106 19.4553 14.4453 19.3175C14.7519 19.19 15.26 19.1825 15.7522 19.175C16.6672 19.1609 17.7041 19.1459 18.425 18.425C19.1459 17.7041 19.1609 16.6672 19.175 15.7522C19.1825 15.26 19.19 14.7519 19.3175 14.4453C19.4553 14.1116 19.8209 13.73 20.1744 13.3606C20.7959 12.7137 21.5 11.9788 21.5 11C21.5 10.0212 20.7959 9.28719 20.1744 8.63937ZM19.0916 12.3228C18.6425 12.7916 18.1775 13.2763 17.9309 13.8716C17.6947 14.4434 17.6844 15.0969 17.675 15.7297C17.6656 16.3859 17.6553 17.0731 17.3638 17.3638C17.0722 17.6544 16.3897 17.6656 15.7297 17.675C15.0969 17.6844 14.4434 17.6947 13.8716 17.9309C13.2763 18.1775 12.7916 18.6425 12.3228 19.0916C11.8541 19.5406 11.375 20 11 20C10.625 20 10.1422 19.5387 9.67719 19.0916C9.21219 18.6444 8.72375 18.1775 8.12844 17.9309C7.55656 17.6947 6.90313 17.6844 6.27031 17.675C5.61406 17.6656 4.92688 17.6553 4.63625 17.3638C4.34562 17.0722 4.33437 16.3897 4.325 15.7297C4.31562 15.0969 4.30531 14.4434 4.06906 13.8716C3.8225 13.2763 3.3575 12.7916 2.90844 12.3228C2.45937 11.8541 2 11.375 2 11C2 10.625 2.46125 10.1422 2.90844 9.67719C3.35562 9.21219 3.8225 8.72375 4.06906 8.12844C4.30531 7.55656 4.31562 6.90313 4.325 6.27031C4.33437 5.61406 4.34469 4.92688 4.63625 4.63625C4.92781 4.34562 5.61031 4.33437 6.27031 4.325C6.90313 4.31562 7.55656 4.30531 8.12844 4.06906C8.72375 3.8225 9.20844 3.3575 9.67719 2.90844C10.1459 2.45937 10.625 2 11 2C11.375 2 11.8578 2.46125 12.3228 2.90844C12.7878 3.35562 13.2763 3.8225 13.8716 4.06906C14.4434 4.30531 15.0969 4.31562 15.7297 4.325C16.3859 4.33437 17.0731 4.34469 17.3638 4.63625C17.6544 4.92781 17.6656 5.61031 17.675 6.27031C17.6844 6.90313 17.6947 7.55656 17.9309 8.12844C18.1775 8.72375 18.6425 9.20844 19.0916 9.67719C19.5406 10.1459 20 10.625 20 11C20 11.375 19.5387 11.8578 19.0916 12.3228ZM12.125 15.875C12.125 16.0975 12.059 16.315 11.9354 16.5C11.8118 16.685 11.6361 16.8292 11.4305 16.9144C11.225 16.9995 10.9988 17.0218 10.7805 16.9784C10.5623 16.935 10.3618 16.8278 10.2045 16.6705C10.0472 16.5132 9.94002 16.3127 9.89662 16.0945C9.85321 15.8762 9.87549 15.65 9.96064 15.4445C10.0458 15.2389 10.19 15.0632 10.375 14.9396C10.56 14.816 10.7775 14.75 11 14.75C11.2984 14.75 11.5845 14.8685 11.7955 15.0795C12.0065 15.2905 12.125 15.5766 12.125 15.875ZM14.75 9.125C14.75 10.7544 13.46 12.1184 11.75 12.4325V12.5C11.75 12.6989 11.671 12.8897 11.5303 13.0303C11.3897 13.171 11.1989 13.25 11 13.25C10.8011 13.25 10.6103 13.171 10.4697 13.0303C10.329 12.8897 10.25 12.6989 10.25 12.5V11.75C10.25 11.5511 10.329 11.3603 10.4697 11.2197C10.6103 11.079 10.8011 11 11 11C12.2403 11 13.25 10.1562 13.25 9.125C13.25 8.09375 12.2403 7.25 11 7.25C9.75969 7.25 8.75 8.09375 8.75 9.125V9.5C8.75 9.69891 8.67098 9.88968 8.53033 10.0303C8.38968 10.171 8.19891 10.25 8 10.25C7.80109 10.25 7.61032 10.171 7.46967 10.0303C7.32902 9.88968 7.25 9.69891 7.25 9.5V9.125C7.25 7.26406 8.93188 5.75 11 5.75C13.0681 5.75 14.75 7.26406 14.75 9.125Z" fill="#566FE9"/>
</svg>
