<svg width="20" height="20" viewBox="0 0 20 20" fill="none" xmlns="http://www.w3.org/2000/svg">
<path d="M9.9904 13.6923L6.3462 10.0481L7.3904 9.00385L9.24043 10.8539L9.24042 6.29808L10.75 6.29808L10.75 10.8539L12.6 9.00385L13.6442 10.0481L9.9904 13.6923ZM9.99835 19.5C11.3123 19.5 12.5473 19.2506 13.7035 18.752C14.8596 18.2533 15.8653 17.5765 16.7205 16.7217C17.5757 15.8669 18.2528 14.8616 18.7517 13.706C19.2506 12.5504 19.5 11.3156 19.5 10.0017C19.5 8.68772 19.2507 7.45268 18.752 6.29655C18.2533 5.1404 17.5766 4.13472 16.7218 3.2795C15.8669 2.42427 14.8617 1.74721 13.706 1.24833C12.5504 0.749443 11.3156 0.500001 10.0017 0.500001C8.68777 0.500001 7.45273 0.749336 6.2966 1.248C5.14045 1.74667 4.13477 2.42342 3.27955 3.27825C2.42431 4.1331 1.74726 5.13834 1.24837 6.29398C0.749489 7.44959 0.500048 8.68437 0.500049 9.9983C0.500049 11.3122 0.749383 12.5473 1.24805 13.7034C1.74672 14.8596 2.42347 15.8652 3.2783 16.7205C4.13315 17.5757 5.13839 18.2527 6.29403 18.7516C7.44964 19.2505 8.68442 19.5 9.99835 19.5Z" fill="#E3837E"/>
</svg>
