<svg width="21" height="20" viewBox="0 0 21 20" fill="none" xmlns="http://www.w3.org/2000/svg">
<path d="M17.375 3.125H3.625C3.29348 3.125 2.97554 3.2567 2.74112 3.49112C2.5067 3.72554 2.375 4.04348 2.375 4.375V15.625C2.375 15.9565 2.5067 16.2745 2.74112 16.5089C2.97554 16.7433 3.29348 16.875 3.625 16.875H4.67109C4.78938 16.875 4.90525 16.8415 5.00524 16.7783C5.10522 16.7151 5.18522 16.6248 5.23594 16.518C5.53986 15.8763 6.0197 15.3341 6.61965 14.9544C7.21959 14.5748 7.915 14.3732 8.625 14.3732C9.335 14.3732 10.0304 14.5748 10.6304 14.9544C11.2303 15.3341 11.7101 15.8763 12.0141 16.518C12.0648 16.6248 12.1448 16.7151 12.2448 16.7783C12.3448 16.8415 12.4606 16.875 12.5789 16.875H17.375C17.7065 16.875 18.0245 16.7433 18.2589 16.5089C18.4933 16.2745 18.625 15.9565 18.625 15.625V4.375C18.625 4.04348 18.4933 3.72554 18.2589 3.49112C18.0245 3.2567 17.7065 3.125 17.375 3.125ZM6.75 11.25C6.75 10.8792 6.85997 10.5166 7.06599 10.2083C7.27202 9.89996 7.56486 9.65964 7.90747 9.51773C8.25008 9.37581 8.62708 9.33868 8.99079 9.41103C9.35451 9.48337 9.6886 9.66195 9.95083 9.92417C10.213 10.1864 10.3916 10.5205 10.464 10.8842C10.5363 11.2479 10.4992 11.6249 10.3573 11.9675C10.2154 12.3101 9.97504 12.603 9.66669 12.809C9.35835 13.015 8.99584 13.125 8.625 13.125C8.12772 13.125 7.65081 12.9275 7.29917 12.5758C6.94754 12.2242 6.75 11.7473 6.75 11.25ZM17.375 15.625H12.9555C12.4335 14.7277 11.6468 14.0138 10.7031 13.5812C11.1762 13.16 11.5102 12.6049 11.6606 11.9895C11.811 11.3741 11.7709 10.7276 11.5455 10.1356C11.3202 9.54352 10.9202 9.03396 10.3986 8.67443C9.87701 8.31489 9.25849 8.12236 8.625 8.12236C7.99151 8.12236 7.37299 8.31489 6.85141 8.67443C6.32984 9.03396 5.92985 9.54352 5.70447 10.1356C5.47909 10.7276 5.43896 11.3741 5.5894 11.9895C5.73985 12.6049 6.07376 13.16 6.54688 13.5812C5.60321 14.0138 4.81646 14.7277 4.29453 15.625H3.625V4.375H17.375V15.625ZM4.875 7.5V6.25C4.875 6.08424 4.94085 5.92527 5.05806 5.80806C5.17527 5.69085 5.33424 5.625 5.5 5.625H15.5C15.6658 5.625 15.8247 5.69085 15.9419 5.80806C16.0592 5.92527 16.125 6.08424 16.125 6.25V13.75C16.125 13.9158 16.0592 14.0747 15.9419 14.1919C15.8247 14.3092 15.6658 14.375 15.5 14.375H14.25C14.0842 14.375 13.9253 14.3092 13.8081 14.1919C13.6908 14.0747 13.625 13.9158 13.625 13.75C13.625 13.5842 13.6908 13.4253 13.8081 13.3081C13.9253 13.1908 14.0842 13.125 14.25 13.125H14.875V6.875H6.125V7.5C6.125 7.66576 6.05915 7.82473 5.94194 7.94194C5.82473 8.05915 5.66576 8.125 5.5 8.125C5.33424 8.125 5.17527 8.05915 5.05806 7.94194C4.94085 7.82473 4.875 7.66576 4.875 7.5Z" fill="white"/>
</svg>
