<svg width="360" height="360" viewBox="0 0 360 360" fill="none" xmlns="http://www.w3.org/2000/svg">
<path d="M40.9598 211.055C31.2081 205.772 27.595 193.599 32.8897 183.867L37.6832 175.057L120.499 219.93C122.124 220.811 122.727 222.839 121.844 224.461L115.453 236.208C111.923 242.696 103.791 245.1 97.2901 241.577L40.9598 211.055Z" fill="#000042"/>
<path d="M319.645 146.83C329.35 152.199 332.857 164.402 327.477 174.087L322.607 182.856L236.177 135.045C234.559 134.151 233.975 132.117 234.871 130.502L241.365 118.811C244.952 112.355 253.104 110.022 259.574 113.601L319.645 146.83Z" fill="#000042"/>
<path d="M132.6 328.607C122.848 323.323 119.235 311.15 124.53 301.419L129.324 292.608L210.314 336.492C211.94 337.373 212.542 339.402 211.659 341.024L205.268 352.771C201.738 359.259 193.607 361.662 187.105 358.14L132.6 328.607Z" fill="#000042"/>
<path d="M152.083 2.4336C161.834 -2.85025 174.032 0.755394 179.327 10.487L184.12 19.2974L39.9469 97.4161L31.9578 82.7321C28.4279 76.2444 30.8367 68.1294 37.3378 64.6068L152.083 2.4336Z" fill="#000042"/>
<path d="M319.323 294.255C329.075 288.971 332.688 276.799 327.393 267.067L322.599 258.257L174.829 338.325L182.818 353.009C186.348 359.496 194.479 361.9 200.98 358.378L319.323 294.255Z" fill="#000042"/>
<path d="M230.725 248.405C240.477 243.121 244.09 230.948 238.795 221.217L234.002 212.406L133.196 267.027C123.444 272.311 119.831 284.483 125.126 294.215L129.919 303.025L230.725 248.405Z" fill="#000042"/>
<path d="M227.31 90.3869C237.062 85.103 240.675 72.9305 235.381 63.1989L230.587 54.3885L126.402 110.84C119.901 114.362 117.493 122.477 121.022 128.965L129.012 143.649L227.31 90.3869Z" fill="#000042"/>
<path d="M227.571 33.8625C237.285 39.2163 240.81 51.4144 235.445 61.1078L230.588 69.8835L146.52 23.5468L154.614 8.92067C158.191 2.45842 166.34 0.11313 172.815 3.68231L227.571 33.8625Z" fill="#000042"/>
<path d="M233.948 225.795L238.805 217.02C244.17 207.326 240.645 195.128 230.931 189.774L129.514 133.876L121.419 148.502C117.842 154.964 120.193 163.096 126.668 166.665L233.948 225.795Z" fill="#000042"/>
<path d="M30 80.5872C30 69.5136 38.9954 60.5367 50.0918 60.5367H60.1377V212.586H50.0918C38.9954 212.586 30 203.609 30 192.536V80.5872Z" fill="#000042"/>
<path d="M238.006 52.0026C238.006 40.9291 229.01 31.9522 217.914 31.9522H207.868V92.1036H217.914C229.01 92.1036 238.006 83.1267 238.006 72.0531V52.0026Z" fill="#000042"/>
<path d="M241.354 208.229C241.354 197.156 232.359 188.179 221.262 188.179H211.216V250.837H221.262C232.359 250.837 241.354 241.86 241.354 230.786V208.229Z" fill="#000042"/>
<path d="M329.907 164.787C329.907 153.714 320.912 144.737 309.815 144.737H299.77V296.369H309.815C320.912 296.369 329.907 287.392 329.907 276.318V164.787Z" fill="#000042"/>
<path d="M121.455 285.09C121.455 274.017 130.45 265.04 141.547 265.04H151.592V330.622H141.547C130.45 330.622 121.455 321.645 121.455 310.571V285.09Z" fill="#000042"/>
<path d="M119.129 123.85C119.129 116.468 125.126 110.483 132.523 110.483H149.267V168.128H132.523C125.126 168.128 119.129 162.144 119.129 154.761V123.85Z" fill="#000042"/>
</svg>
