<svg width="153" height="36" viewBox="0 0 153 36" fill="none" xmlns="http://www.w3.org/2000/svg">
<path d="M5.30554 21.1076C4.33238 20.5792 3.97181 19.3621 4.5002 18.3889L4.97855 17.5078L13.2431 21.9951C13.4053 22.0832 13.4654 22.286 13.3774 22.4482L12.7396 23.6229C12.3872 24.2717 11.5758 24.5121 10.927 24.1598L5.30554 21.1076Z" fill="#000042"/>
<path d="M33.121 14.6841C34.0896 15.221 34.4395 16.4414 33.9026 17.4099L33.4166 18.2867L24.7914 13.5057C24.63 13.4162 24.5716 13.2128 24.661 13.0514L25.3092 11.8823C25.667 11.2366 26.4806 11.0033 27.1263 11.3612L33.121 14.6841Z" fill="#000042"/>
<path d="M14.4492 32.8596C13.476 32.3313 13.1154 31.114 13.6437 30.1408L14.1222 29.2598L22.2045 33.6482C22.3668 33.7362 22.4269 33.9392 22.3388 34.1013L21.701 35.2761C21.3487 35.9248 20.5372 36.1652 19.8884 35.813L14.4492 32.8596Z" fill="#000042"/>
<path d="M16.3971 0.24336C17.3702 -0.285025 18.5875 0.0755396 19.1158 1.0487L19.5943 1.92974L5.20659 9.7416L4.40931 8.27322C4.05706 7.62444 4.29743 6.81294 4.94621 6.46068L16.3971 0.24336Z" fill="#000042"/>
<path d="M33.0857 29.4231C34.0589 28.8946 34.4194 27.6775 33.891 26.7043L33.4127 25.8232L18.666 33.83L19.4633 35.2984C19.8155 35.9472 20.6271 36.1875 21.2758 35.8353L33.0857 29.4231Z" fill="#000042"/>
<path d="M24.2444 24.8391C25.2176 24.3108 25.5782 23.0935 25.0497 22.1203L24.5714 21.2393L14.5116 26.7013C13.5384 27.2298 13.1779 28.4469 13.7063 29.4201L14.1846 30.3012L24.2444 24.8391Z" fill="#000042"/>
<path d="M23.904 9.03733C24.8771 8.50895 25.2377 7.29169 24.7093 6.31853L24.2309 5.4375L13.834 11.0826C13.1851 11.4349 12.9448 12.2463 13.297 12.8952L14.0942 14.3635L23.904 9.03733Z" fill="#000042"/>
<path d="M23.9324 3.38605C24.9016 3.92143 25.2534 5.14123 24.7181 6.11057L24.2333 6.98814L15.8438 2.35448L16.6516 0.891861C17.0085 0.245637 17.8217 0.011107 18.4679 0.368025L23.9324 3.38605Z" fill="#000042"/>
<path d="M24.5684 22.5797L25.0532 21.7021C25.5886 20.7328 25.2367 19.513 24.2675 18.9775L14.1466 13.3877L13.3387 14.8503C12.9818 15.4966 13.2163 16.3097 13.8625 16.6667L24.5684 22.5797Z" fill="#000042"/>
<path d="M4.21289 8.0568C4.21289 6.94944 5.11059 6.05176 6.21795 6.05176H7.22046V21.2567H6.21795C5.11059 21.2567 4.21289 20.359 4.21289 19.2516V8.0568Z" fill="#000042"/>
<path d="M24.9705 5.20231C24.9705 4.09496 24.0727 3.19727 22.9654 3.19727H21.9629V9.21241H22.9654C24.0727 9.21241 24.9705 8.31471 24.9705 7.20737V5.20231Z" fill="#000042"/>
<path d="M25.3075 20.8204C25.3075 19.713 24.4098 18.8154 23.3024 18.8154H22.2998V25.0811H23.3024C24.4098 25.0811 25.3075 24.1835 25.3075 23.0762V20.8204Z" fill="#000042"/>
<path d="M34.1423 16.4797C34.1423 15.3723 33.2446 14.4746 32.1372 14.4746H31.1348V29.6378H32.1372C33.2446 29.6378 34.1423 28.7401 34.1423 27.6327V16.4797Z" fill="#000042"/>
<path d="M13.3408 28.5079C13.3408 27.4005 14.2385 26.5029 15.3459 26.5029H16.3484V33.061H15.3459C14.2385 33.061 13.3408 32.1633 13.3408 31.056V28.5079Z" fill="#000042"/>
<path d="M13.1064 12.3855C13.1064 11.6473 13.7049 11.0488 14.4431 11.0488H16.114V16.8134H14.4431C13.7049 16.8134 13.1064 16.2149 13.1064 15.4767V12.3855Z" fill="#000042"/>
<path d="M43.1064 21.7097H45.9843C45.9843 22.6417 46.4138 23.4457 47.2725 24.1217C48.1496 24.7978 49.2734 25.1359 50.6438 25.1359C52.1421 25.1359 53.2475 24.88 53.9602 24.3683C54.6728 23.8385 55.029 23.135 55.029 22.2579C55.029 20.851 53.9327 19.9373 51.7401 19.5171L48.0399 18.8319C46.5416 18.5578 45.4088 17.9822 44.6412 17.1051C43.8921 16.228 43.5176 15.1135 43.5176 13.7613C43.5176 12.1533 44.1388 10.8195 45.3813 9.75967C46.6239 8.68162 48.2866 8.14258 50.3697 8.14258C52.672 8.14258 54.4535 8.72729 55.7142 9.89673C56.9933 11.0479 57.6329 12.5188 57.6329 14.3095H54.755C54.755 13.3777 54.353 12.5737 53.5491 11.8975C52.7451 11.2215 51.6852 10.8834 50.3697 10.8834C49.1271 10.8834 48.1496 11.1666 47.437 11.7331C46.7426 12.2812 46.3954 12.9573 46.3954 13.7613C46.3954 15.1135 47.3547 15.9814 49.2734 16.3652L52.2882 16.9133C54.2252 17.2605 55.6412 17.8635 56.5366 18.7222C57.4502 19.5628 57.907 20.7413 57.907 22.2579C57.907 23.9025 57.2765 25.2545 56.0158 26.3144C54.755 27.3559 52.9643 27.8766 50.6438 27.8766C48.3232 27.8766 46.4868 27.2919 45.1347 26.1225C43.7825 24.9531 43.1064 23.4821 43.1064 21.7097ZM60.5108 27.6026V8.41667H63.2516V15.2687H63.3886C63.6993 14.9582 64.0373 14.6841 64.4027 14.4465C65.2798 13.8983 66.2666 13.6243 67.3629 13.6243C69.0257 13.6243 70.3504 14.1451 71.3372 15.1865C72.342 16.2098 72.8446 17.6076 72.8446 19.38V27.6026H70.1037V19.38C70.1037 18.4847 69.784 17.7172 69.1444 17.0777C68.5232 16.4199 67.7466 16.091 66.8147 16.091C65.8097 16.091 64.9601 16.4199 64.2657 17.0777C63.5896 17.7172 63.2516 18.4847 63.2516 19.38V27.6026H60.5108ZM78.9314 24.1491C79.7171 24.9897 80.7038 25.4099 81.8915 25.4099C83.0792 25.4099 84.0568 24.9897 84.8242 24.1491C85.61 23.2903 86.0027 22.1574 86.0027 20.7505C86.0027 19.3434 85.61 18.2198 84.8242 17.3792C84.0568 16.5205 83.0792 16.091 81.8915 16.091C80.7038 16.091 79.7171 16.5205 78.9314 17.3792C78.164 18.2198 77.7802 19.3434 77.7802 20.7505C77.7802 22.1574 78.164 23.2903 78.9314 24.1491ZM86.7976 25.9033C85.5185 27.2188 83.8832 27.8766 81.8915 27.8766C79.8998 27.8766 78.2553 27.2188 76.958 25.9033C75.6789 24.5877 75.0394 22.87 75.0394 20.7505C75.0394 18.6309 75.6789 16.9133 76.958 15.5977C78.2553 14.2821 79.8998 13.6243 81.8915 13.6243C83.8832 13.6243 85.5185 14.2821 86.7976 15.5977C88.0949 16.9133 88.7436 18.6309 88.7436 20.7505C88.7436 22.87 88.0949 24.5877 86.7976 25.9033ZM101.354 27.6026L101.08 25.9581H100.942C99.9741 27.2372 98.558 27.8766 96.6942 27.8766C94.867 27.8766 93.3595 27.2279 92.1718 25.9306C90.9841 24.6333 90.3903 22.9066 90.3903 20.7505C90.3903 18.5943 90.9841 16.8676 92.1718 15.5703C93.3595 14.273 94.867 13.6243 96.6942 13.6243C97.4981 13.6243 98.229 13.7704 98.8869 14.0628C99.563 14.3369 100.001 14.5744 100.202 14.7754C100.403 14.9582 100.65 15.214 100.942 15.5428H101.08V8.41667H103.82V27.6026H101.354ZM94.2549 24.1217C95.0223 24.9805 95.9724 25.4099 97.1054 25.4099C98.2382 25.4099 99.1792 24.9805 99.9284 24.1217C100.696 23.2629 101.08 22.1392 101.08 20.7505C101.08 19.3618 100.696 18.238 99.9284 17.3792C99.1792 16.5205 98.2382 16.091 97.1054 16.091C95.9724 16.091 95.0223 16.5205 94.2549 17.3792C93.5057 18.238 93.1311 19.3618 93.1311 20.7505C93.1311 22.1392 93.5057 23.2629 94.2549 24.1217ZM107.099 27.6026V8.41667H109.84V15.2687H109.977C110.287 14.9582 110.625 14.6841 110.991 14.4465C111.868 13.8983 112.854 13.6243 113.951 13.6243C115.614 13.6243 116.938 14.1451 117.925 15.1865C118.93 16.2098 119.432 17.6076 119.432 19.38V27.6026H116.692V19.38C116.692 18.4847 116.372 17.7172 115.732 17.0777C115.111 16.4199 114.334 16.091 113.403 16.091C112.398 16.091 111.548 16.4199 110.854 17.0777C110.178 17.7172 109.84 18.4847 109.84 19.38V27.6026H107.099ZM126.434 27.6026L133.423 8.41667H137.808L144.798 27.6026H141.645L140.001 23.0801H131.23L129.585 27.6026H126.434ZM132.189 20.4764H139.041L135.889 11.7057H135.342L132.189 20.4764ZM146.302 27.6026V8.41667H149.18V27.6026H146.302Z" fill="#000042"/>
</svg>
