<svg width="20" height="20" viewBox="0 0 20 20" fill="none" xmlns="http://www.w3.org/2000/svg">
<path d="M11.2498 12.9439C12.2296 12.3337 12.9839 11.421 13.3988 10.3438C13.8136 9.26671 13.8663 8.08377 13.549 6.97399C13.2316 5.86421 12.5615 4.88798 11.6399 4.19299C10.7183 3.498 9.59546 3.12207 8.4412 3.12207C7.28694 3.12207 6.16409 3.498 5.24251 4.19299C4.32093 4.88798 3.65077 5.86421 3.33343 6.97399C3.01609 8.08377 3.06882 9.26671 3.48365 10.3438C3.89849 11.421 4.65285 12.3337 5.63261 12.9439C4.01933 13.4721 2.56777 14.4588 1.40058 15.8479C1.29387 15.9748 1.24195 16.1389 1.25623 16.3041C1.27052 16.4692 1.34984 16.622 1.47675 16.7287C1.60366 16.8354 1.76776 16.8873 1.93296 16.8731C2.09815 16.8588 2.2509 16.7794 2.35761 16.6525C3.92558 14.7807 6.08652 13.7502 8.4373 13.7502C10.7881 13.7502 12.949 14.7807 14.5217 16.6525C14.6284 16.7794 14.7811 16.8588 14.9463 16.8731C15.1115 16.8873 15.2756 16.8354 15.4025 16.7287C15.5294 16.622 15.6088 16.4692 15.623 16.3041C15.6373 16.1389 15.5854 15.9748 15.4787 15.8479C14.3107 14.4588 12.8592 13.4721 11.2498 12.9439ZM4.3748 8.43769C4.3748 7.63421 4.61306 6.84877 5.05945 6.18069C5.50585 5.51262 6.14032 4.99192 6.88265 4.68443C7.62497 4.37695 8.4418 4.2965 9.22985 4.45325C10.0179 4.61001 10.7418 4.99692 11.3099 5.56507C11.8781 6.13322 12.265 6.85709 12.4217 7.64514C12.5785 8.43319 12.498 9.25002 12.1906 9.99235C11.8831 10.7347 11.3624 11.3691 10.6943 11.8155C10.0262 12.2619 9.24078 12.5002 8.4373 12.5002C7.36024 12.499 6.32764 12.0705 5.56605 11.3089C4.80445 10.5473 4.37604 9.51476 4.3748 8.43769ZM16.1998 5.12519C16.6452 6.17275 16.8748 7.29938 16.8748 8.43769C16.8748 9.57601 16.6452 10.7026 16.1998 11.7502C16.1517 11.8629 16.0716 11.9589 15.9693 12.0264C15.8671 12.0939 15.7473 12.1299 15.6248 12.1299C15.5213 12.13 15.4195 12.1044 15.3284 12.0554C15.2372 12.0064 15.1597 11.9355 15.1027 11.8492C15.0457 11.7628 15.011 11.6637 15.0018 11.5607C14.9926 11.4576 15.0091 11.3539 15.0498 11.2588C15.4292 10.3667 15.6248 9.40716 15.6248 8.43769C15.6248 7.46823 15.4292 6.50873 15.0498 5.6166C14.9846 5.4641 14.9827 5.29196 15.0445 5.13805C15.1062 4.98414 15.2266 4.86106 15.3791 4.7959C15.5316 4.73073 15.7037 4.72882 15.8576 4.79057C16.0116 4.85233 16.1346 4.9727 16.1998 5.12519ZM19.3748 8.43769C19.3777 9.91902 19.0776 11.3853 18.4928 12.7463C18.4244 12.8938 18.3012 13.0088 18.1494 13.067C17.9975 13.1252 17.829 13.1219 17.6796 13.0578C17.5301 12.9938 17.4115 12.874 17.3489 12.724C17.2863 12.5739 17.2847 12.4054 17.3443 12.2541C17.8593 11.0477 18.1248 9.74946 18.1248 8.43769C18.1248 7.12593 17.8593 5.82774 17.3443 4.62129C17.3092 4.54543 17.2896 4.46328 17.2867 4.37971C17.2838 4.29614 17.2978 4.21285 17.3277 4.13477C17.3576 4.05668 17.4029 3.98539 17.4608 3.92512C17.5188 3.86485 17.5883 3.81683 17.6651 3.78389C17.742 3.75095 17.8247 3.73377 17.9083 3.73336C17.9919 3.73295 18.0748 3.74933 18.1519 3.78152C18.2291 3.81371 18.299 3.86106 18.3576 3.92076C18.4161 3.98047 18.4621 4.05131 18.4928 4.1291C19.0776 5.49011 19.3777 6.95637 19.3748 8.43769Z" fill="white"/>
</svg>
