<svg width="18" height="18" viewBox="0 0 18 18" fill="none" xmlns="http://www.w3.org/2000/svg">
<path d="M12.5672 6.68281C12.6253 6.74086 12.6714 6.80979 12.7029 6.88566C12.7343 6.96154 12.7505 7.04287 12.7505 7.125C12.7505 7.20714 12.7343 7.28846 12.7029 7.36434C12.6714 7.44021 12.6253 7.50914 12.5672 7.56719L8.19219 11.9422C8.13415 12.0003 8.06522 12.0464 7.98934 12.0779C7.91347 12.1093 7.83214 12.1255 7.75 12.1255C7.66787 12.1255 7.58654 12.1093 7.51067 12.0779C7.43479 12.0464 7.36586 12.0003 7.30782 11.9422L5.43282 10.0672C5.31554 9.94991 5.24966 9.79085 5.24966 9.625C5.24966 9.45915 5.31554 9.30009 5.43282 9.18281C5.55009 9.06554 5.70915 8.99965 5.875 8.99965C6.04086 8.99965 6.19992 9.06554 6.31719 9.18281L7.75 10.6164L11.6828 6.68281C11.7409 6.6247 11.8098 6.5786 11.8857 6.54715C11.9615 6.5157 12.0429 6.49951 12.125 6.49951C12.2071 6.49951 12.2885 6.5157 12.3643 6.54715C12.4402 6.5786 12.5091 6.6247 12.5672 6.68281ZM17.125 9C17.125 10.607 16.6485 12.1779 15.7557 13.514C14.8629 14.8502 13.594 15.8916 12.1093 16.5065C10.6247 17.1215 8.99099 17.2824 7.4149 16.9689C5.8388 16.6554 4.39106 15.8815 3.25476 14.7452C2.11846 13.6089 1.34463 12.1612 1.03112 10.5851C0.717618 9.00901 0.87852 7.37535 1.49348 5.8907C2.10844 4.40605 3.14985 3.1371 4.486 2.24431C5.82215 1.35152 7.39303 0.875 9 0.875C11.1542 0.877275 13.2195 1.73403 14.7427 3.25727C16.266 4.78051 17.1227 6.84581 17.125 9ZM15.875 9C15.875 7.64025 15.4718 6.31104 14.7164 5.18045C13.9609 4.04987 12.8872 3.16868 11.631 2.64833C10.3747 2.12798 8.99238 1.99183 7.65876 2.2571C6.32514 2.52237 5.10013 3.17716 4.13864 4.13864C3.17716 5.10013 2.52238 6.32514 2.2571 7.65875C1.99183 8.99237 2.12798 10.3747 2.64833 11.6309C3.16868 12.8872 4.04987 13.9609 5.18046 14.7164C6.31105 15.4718 7.64026 15.875 9 15.875C10.8227 15.8729 12.5702 15.1479 13.8591 13.8591C15.1479 12.5702 15.8729 10.8227 15.875 9Z" fill="#40BB33"/>
</svg>
