<svg width="60" height="60" viewBox="0 0 60 60" fill="none" xmlns="http://www.w3.org/2000/svg">
<path d="M42.8419 21.6581C43.0511 21.8671 43.217 22.1152 43.3303 22.3884C43.4435 22.6615 43.5018 22.9543 43.5018 23.25C43.5018 23.5457 43.4435 23.8385 43.3303 24.1116C43.217 24.3848 43.0511 24.6329 42.8419 24.8419L27.0919 40.5919C26.8829 40.8011 26.6348 40.967 26.3616 41.0803C26.0885 41.1935 25.7957 41.2518 25.5 41.2518C25.2043 41.2518 24.9115 41.1935 24.6384 41.0803C24.3653 40.967 24.1171 40.8011 23.9081 40.5919L17.1581 33.8419C16.7359 33.4197 16.4988 32.8471 16.4988 32.25C16.4988 31.6529 16.7359 31.0803 17.1581 30.6581C17.5803 30.2359 18.1529 29.9987 18.75 29.9987C19.3471 29.9987 19.9197 30.2359 20.3419 30.6581L25.5 35.8191L39.6581 21.6581C39.8671 21.4489 40.1153 21.283 40.3884 21.1697C40.6615 21.0565 40.9543 20.9982 41.25 20.9982C41.5457 20.9982 41.8385 21.0565 42.1116 21.1697C42.3848 21.283 42.6329 21.4489 42.8419 21.6581ZM59.25 30C59.25 35.7851 57.5345 41.4403 54.3205 46.2504C51.1065 51.0606 46.5382 54.8096 41.1935 57.0235C35.8488 59.2373 29.9676 59.8166 24.2936 58.688C18.6197 57.5593 13.4078 54.7736 9.31714 50.6829C5.22645 46.5922 2.44066 41.3803 1.31204 35.7064C0.183426 30.0324 0.762674 24.1512 2.97654 18.8065C5.1904 13.4618 8.93945 8.89355 13.7496 5.67951C18.5597 2.46548 24.2149 0.75 30 0.75C37.7551 0.758189 45.1902 3.84251 50.6738 9.32617C56.1575 14.8098 59.2418 22.2449 59.25 30ZM54.75 30C54.75 25.1049 53.2985 20.3198 50.5789 16.2496C47.8593 12.1795 43.9939 9.00725 39.4714 7.13398C34.949 5.26071 29.9726 4.77058 25.1715 5.72556C20.3705 6.68055 15.9605 9.03776 12.4991 12.4991C9.03777 15.9605 6.68056 20.3705 5.72558 25.1715C4.77059 29.9725 5.26073 34.9489 7.13399 39.4714C9.00726 43.9939 12.1795 47.8593 16.2496 50.5789C20.3198 53.2984 25.1049 54.75 30 54.75C36.5618 54.7426 42.8528 52.1326 47.4927 47.4927C52.1326 42.8528 54.7426 36.5618 54.75 30Z" fill="#5FC555"/>
</svg>
