<svg width="24" height="24" viewBox="0 0 24 24" fill="none" xmlns="http://www.w3.org/2000/svg">
<mask id="mask0_4136_4159" style="mask-type:alpha" maskUnits="userSpaceOnUse" x="0" y="0" width="24" height="24">
<rect x="24" y="24" width="24" height="24" transform="rotate(-180 24 24)" fill="#D9D9D9"/>
</mask>
<g mask="url(#mask0_4136_4159)">
<path d="M11.9904 8.30775L8.3462 11.9519L9.3904 12.9961L11.2404 11.1461L11.2404 15.7019L12.75 15.7019L12.75 11.1461L14.6 12.9961L15.6442 11.9519L11.9904 8.30775ZM11.9984 2.50005C13.3123 2.50005 14.5473 2.74938 15.7035 3.24805C16.8596 3.74672 17.8653 4.42346 18.7205 5.2783C19.5757 6.13315 20.2528 7.13839 20.7517 8.29402C21.2506 9.44964 21.5 10.6844 21.5 11.9983C21.5 13.3123 21.2507 14.5473 20.752 15.7034C20.2533 16.8596 19.5766 17.8653 18.7218 18.7205C17.8669 19.5757 16.8617 20.2528 15.706 20.7517C14.5504 21.2506 13.3156 21.5 12.0017 21.5C10.6878 21.5 9.45273 21.2507 8.2966 20.752C7.14045 20.2533 6.13477 19.5766 5.27955 18.7217C4.42431 17.8669 3.74726 16.8617 3.24837 15.706C2.74949 14.5504 2.50005 13.3156 2.50005 12.0017C2.50005 10.6878 2.74938 9.45273 3.24805 8.2966C3.74672 7.14045 4.42347 6.13476 5.2783 5.27955C6.13315 4.42431 7.13839 3.74726 8.29403 3.24837C9.44964 2.74949 10.6844 2.50005 11.9984 2.50005Z" fill="#40BB33"/>
</g>
</svg>
