<svg width="56" height="56" viewBox="0 0 56 56" fill="none" xmlns="http://www.w3.org/2000/svg">
<rect width="56" height="56" rx="28" fill="#566FE9" fill-opacity="0.1"/>
<path d="M34.523 28.0994L29.6874 26.3125L27.9062 21.4731C27.8007 21.1866 27.6098 20.9392 27.3594 20.7645C27.1089 20.5899 26.8109 20.4962 26.5055 20.4962C26.2002 20.4962 25.9022 20.5899 25.6517 20.7645C25.4012 20.9392 25.2104 21.1866 25.1049 21.4731L23.3124 26.3125L18.473 28.0938C18.1865 28.1992 17.9391 28.3901 17.7645 28.6405C17.5898 28.891 17.4961 29.189 17.4961 29.4944C17.4961 29.7997 17.5898 30.0978 17.7645 30.3482C17.9391 30.5987 18.1865 30.7895 18.473 30.895L23.3124 32.6875L25.0937 37.5269C25.1991 37.8134 25.39 38.0608 25.6404 38.2355C25.8909 38.4101 26.1889 38.5038 26.4943 38.5038C26.7996 38.5038 27.0977 38.4101 27.3481 38.2355C27.5986 38.0608 27.7894 37.8134 27.8949 37.5269L29.6874 32.6875L34.5268 30.9062C34.8133 30.8008 35.0607 30.6099 35.2354 30.3595C35.41 30.109 35.5037 29.811 35.5037 29.5056C35.5037 29.2003 35.41 28.9022 35.2354 28.6518C35.0607 28.4013 34.8133 28.2105 34.5268 28.105L34.523 28.0994ZM28.8437 31.3956C28.7419 31.4331 28.6494 31.4923 28.5727 31.569C28.496 31.6457 28.4368 31.7382 28.3993 31.84L26.4999 36.9859L24.6043 31.8438C24.5668 31.7409 24.5073 31.6474 24.4299 31.57C24.3525 31.4926 24.259 31.4331 24.1562 31.3956L19.014 29.5L24.1562 27.6044C24.259 27.5669 24.3525 27.5074 24.4299 27.43C24.5073 27.3526 24.5668 27.2591 24.6043 27.1562L26.4999 22.0141L28.3955 27.1562C28.4331 27.2581 28.4922 27.3505 28.5689 27.4272C28.6456 27.5039 28.7381 27.5631 28.8399 27.6006L33.9858 29.5L28.8437 31.3956ZM29.4999 19.75C29.4999 19.5511 29.5789 19.3603 29.7196 19.2197C29.8602 19.079 30.051 19 30.2499 19H31.7499V17.5C31.7499 17.3011 31.8289 17.1103 31.9696 16.9697C32.1102 16.829 32.301 16.75 32.4999 16.75C32.6988 16.75 32.8896 16.829 33.0302 16.9697C33.1709 17.1103 33.2499 17.3011 33.2499 17.5V19H34.7499C34.9488 19 35.1396 19.079 35.2802 19.2197C35.4209 19.3603 35.4999 19.5511 35.4999 19.75C35.4999 19.9489 35.4209 20.1397 35.2802 20.2803C35.1396 20.421 34.9488 20.5 34.7499 20.5H33.2499V22C33.2499 22.1989 33.1709 22.3897 33.0302 22.5303C32.8896 22.671 32.6988 22.75 32.4999 22.75C32.301 22.75 32.1102 22.671 31.9696 22.5303C31.8289 22.3897 31.7499 22.1989 31.7499 22V20.5H30.2499C30.051 20.5 29.8602 20.421 29.7196 20.2803C29.5789 20.1397 29.4999 19.9489 29.4999 19.75ZM39.2499 24.25C39.2499 24.4489 39.1709 24.6397 39.0302 24.7803C38.8896 24.921 38.6988 25 38.4999 25H37.7499V25.75C37.7499 25.9489 37.6709 26.1397 37.5302 26.2803C37.3896 26.421 37.1988 26.5 36.9999 26.5C36.801 26.5 36.6102 26.421 36.4696 26.2803C36.3289 26.1397 36.2499 25.9489 36.2499 25.75V25H35.4999C35.301 25 35.1102 24.921 34.9696 24.7803C34.8289 24.6397 34.7499 24.4489 34.7499 24.25C34.7499 24.0511 34.8289 23.8603 34.9696 23.7197C35.1102 23.579 35.301 23.5 35.4999 23.5H36.2499V22.75C36.2499 22.5511 36.3289 22.3603 36.4696 22.2197C36.6102 22.079 36.801 22 36.9999 22C37.1988 22 37.3896 22.079 37.5302 22.2197C37.6709 22.3603 37.7499 22.5511 37.7499 22.75V23.5H38.4999C38.6988 23.5 38.8896 23.579 39.0302 23.7197C39.1709 23.8603 39.2499 24.0511 39.2499 24.25Z" fill="#566FE9"/>
</svg>
