<svg width="28" height="28" viewBox="0 0 28 28" fill="none" xmlns="http://www.w3.org/2000/svg">
<path d="M27.1258 13.5627C27.1247 12.4037 26.7953 11.2687 26.1759 10.2891C25.5565 9.30943 24.6724 8.52523 23.6258 8.02721V7.87518C23.6248 6.74777 23.2609 5.65062 22.5879 4.74609C21.915 3.84155 20.9687 3.17769 19.8891 2.85271C18.8095 2.52774 17.654 2.55892 16.5936 2.94165C15.5331 3.32438 14.624 4.03832 14.0008 4.97784C13.3776 4.03832 12.4685 3.32438 11.4081 2.94165C10.3476 2.55892 9.19209 2.52774 8.11252 2.85271C7.03296 3.17769 6.08668 3.84155 5.41371 4.74609C4.74074 5.65062 4.37683 6.74777 4.37582 7.87518V8.02721C3.32838 8.52387 2.44338 9.30758 1.82367 10.2873C1.20397 11.2669 0.875 12.4024 0.875 13.5616C0.875 14.7208 1.20397 15.8562 1.82367 16.8359C2.44338 17.8156 3.32838 18.5993 4.37582 19.096V19.2502C4.37683 20.3776 4.74074 21.4747 5.41371 22.3793C6.08668 23.2838 7.03296 23.9477 8.11252 24.2727C9.19209 24.5976 10.3476 24.5664 11.4081 24.1837C12.4685 23.801 13.3776 23.087 14.0008 22.1475C14.624 23.087 15.5331 23.801 16.5936 24.1837C17.654 24.5664 18.8095 24.5976 19.8891 24.2727C20.9687 23.9477 21.915 23.2838 22.5879 22.3793C23.2609 21.4747 23.6248 20.3776 23.6258 19.2502V19.096C24.6722 18.5983 25.5563 17.8145 26.1757 16.8353C26.7951 15.856 27.1245 14.7214 27.1258 13.5627ZM9.62582 22.7502C8.76279 22.7501 7.93024 22.4311 7.28807 21.8545C6.64589 21.278 6.23938 20.4845 6.1466 19.6264C6.42956 19.6668 6.715 19.6873 7.00082 19.6877H7.87582C8.10788 19.6877 8.33044 19.5955 8.49454 19.4314C8.65863 19.2673 8.75082 19.0447 8.75082 18.8127C8.75082 18.5806 8.65863 18.3581 8.49454 18.194C8.33044 18.0299 8.10788 17.9377 7.87582 17.9377H7.00082C5.96784 17.9389 4.96775 17.5746 4.17761 16.9092C3.38747 16.2438 2.85825 15.3203 2.68366 14.3022C2.50906 13.284 2.70034 12.237 3.22364 11.3464C3.74693 10.4557 4.56849 9.779 5.54285 9.43596C5.71334 9.3756 5.86093 9.2639 5.96533 9.11622C6.06972 8.96854 6.12579 8.79213 6.12582 8.61128V7.87518C6.12582 6.94693 6.49457 6.05669 7.15095 5.40031C7.80732 4.74393 8.69756 4.37518 9.62582 4.37518C10.5541 4.37518 11.4443 4.74393 12.1007 5.40031C12.7571 6.05669 13.1258 6.94693 13.1258 7.87518V15.3411C12.165 14.4769 10.9181 13.9992 9.62582 14.0002C9.39375 14.0002 9.1712 14.0924 9.0071 14.2565C8.84301 14.4206 8.75082 14.6431 8.75082 14.8752C8.75082 15.1072 8.84301 15.3298 9.0071 15.4939C9.1712 15.658 9.39375 15.7502 9.62582 15.7502C10.5541 15.7502 11.4443 16.1189 12.1007 16.7753C12.7571 17.4317 13.1258 18.3219 13.1258 19.2502C13.1258 20.1784 12.7571 21.0687 12.1007 21.7251C11.4443 22.3814 10.5541 22.7502 9.62582 22.7502ZM21.0008 17.9377H20.1258C19.8938 17.9377 19.6712 18.0299 19.5071 18.194C19.343 18.3581 19.2508 18.5806 19.2508 18.8127C19.2508 19.0447 19.343 19.2673 19.5071 19.4314C19.6712 19.5955 19.8938 19.6877 20.1258 19.6877H21.0008C21.2866 19.6873 21.5721 19.6668 21.855 19.6264C21.7823 20.2987 21.5165 20.9356 21.0895 21.46C20.6626 21.9844 20.0929 22.3738 19.4493 22.5813C18.8057 22.7888 18.1158 22.8054 17.463 22.6292C16.8101 22.4529 16.2223 22.0913 15.7706 21.5881C15.319 21.0848 15.0227 20.4615 14.9178 19.7935C14.8128 19.1255 14.9036 18.4414 15.1791 17.8239C15.4547 17.2064 15.9032 16.6819 16.4705 16.3139C17.0378 15.9459 17.6996 15.7501 18.3758 15.7502C18.6079 15.7502 18.8304 15.658 18.9945 15.4939C19.1586 15.3298 19.2508 15.1072 19.2508 14.8752C19.2508 14.6431 19.1586 14.4206 18.9945 14.2565C18.8304 14.0924 18.6079 14.0002 18.3758 14.0002C17.0835 13.9992 15.8367 14.4769 14.8758 15.3411V7.87518C14.8758 6.94693 15.2446 6.05669 15.9009 5.40031C16.5573 4.74393 17.4476 4.37518 18.3758 4.37518C19.3041 4.37518 20.1943 4.74393 20.8507 5.40031C21.5071 6.05669 21.8758 6.94693 21.8758 7.87518V8.61128C21.8758 8.79213 21.9319 8.96854 22.0363 9.11622C22.1407 9.2639 22.2883 9.3756 22.4588 9.43596C23.4331 9.779 24.2547 10.4557 24.778 11.3464C25.3013 12.237 25.4926 13.284 25.318 14.3022C25.1434 15.3203 24.6142 16.2438 23.824 16.9092C23.0339 17.5746 22.0338 17.9389 21.0008 17.9377ZM22.7508 12.2502C22.7508 12.4822 22.6586 12.7048 22.4945 12.8689C22.3304 13.033 22.1079 13.1252 21.8758 13.1252H21.4383C20.394 13.1252 19.3925 12.7103 18.6541 11.9719C17.9157 11.2335 17.5008 10.232 17.5008 9.18768V8.75018C17.5008 8.51812 17.593 8.29556 17.7571 8.13147C17.9212 7.96737 18.1438 7.87518 18.3758 7.87518C18.6079 7.87518 18.8304 7.96737 18.9945 8.13147C19.1586 8.29556 19.2508 8.51812 19.2508 8.75018V9.18768C19.2508 9.76784 19.4813 10.3242 19.8915 10.7345C20.3018 11.1447 20.8582 11.3752 21.4383 11.3752H21.8758C22.1079 11.3752 22.3304 11.4674 22.4945 11.6315C22.6586 11.7956 22.7508 12.0181 22.7508 12.2502ZM6.56332 13.1252H6.12582C5.89376 13.1252 5.6712 13.033 5.5071 12.8689C5.34301 12.7048 5.25082 12.4822 5.25082 12.2502C5.25082 12.0181 5.34301 11.7956 5.5071 11.6315C5.6712 11.4674 5.89376 11.3752 6.12582 11.3752H6.56332C7.14348 11.3752 7.69988 11.1447 8.11012 10.7345C8.52035 10.3242 8.75082 9.76784 8.75082 9.18768V8.75018C8.75082 8.51812 8.84301 8.29556 9.0071 8.13147C9.1712 7.96737 9.39375 7.87518 9.62582 7.87518C9.85788 7.87518 10.0804 7.96737 10.2445 8.13147C10.4086 8.29556 10.5008 8.51812 10.5008 8.75018V9.18768C10.5008 10.232 10.086 11.2335 9.34755 11.9719C8.60913 12.7103 7.60761 13.1252 6.56332 13.1252Z" fill="#566FE9"/>
</svg>
