<svg width="21" height="20" viewBox="0 0 21 20" fill="none" xmlns="http://www.w3.org/2000/svg">
<path d="M19.2504 6.89205C19.2191 7.98006 18.7717 9.01462 18.0004 9.78267L15.2856 12.4991C14.8902 12.8966 14.4199 13.2118 13.9018 13.4264C13.3838 13.641 12.8283 13.7506 12.2676 13.7491H12.2637C11.6934 13.7487 11.129 13.634 10.6038 13.4118C10.0786 13.1896 9.60323 12.8644 9.20581 12.4554C8.80839 12.0464 8.49697 11.5619 8.28994 11.0305C8.08291 10.4991 7.98447 9.93164 8.00045 9.36158C8.00511 9.19582 8.07543 9.0387 8.19593 8.92479C8.31644 8.81087 8.47726 8.7495 8.64302 8.75416C8.80878 8.75882 8.9659 8.82914 9.07982 8.94965C9.19373 9.07015 9.25511 9.23098 9.25045 9.39674C9.23907 9.7998 9.30859 10.2011 9.45492 10.5768C9.60125 10.9525 9.82141 11.2951 10.1024 11.5844C10.3834 11.8736 10.7195 12.1035 11.0908 12.2606C11.4622 12.4177 11.8613 12.4988 12.2645 12.4991C12.6609 12.5001 13.0535 12.4225 13.4198 12.2709C13.786 12.1192 14.1185 11.8965 14.3981 11.6155L17.1129 8.90064C17.6731 8.33346 17.9861 7.56771 17.9836 6.77057C17.9811 5.97343 17.6633 5.20965 17.0996 4.64599C16.536 4.08232 15.7722 3.76455 14.975 3.76206C14.1779 3.75957 13.4122 4.07255 12.845 4.63267L11.9856 5.49205C11.8674 5.60431 11.7101 5.66597 11.5471 5.66389C11.3841 5.6618 11.2284 5.59613 11.1132 5.48088C10.9979 5.36563 10.9323 5.20991 10.9302 5.04694C10.9281 4.88396 10.9897 4.72662 11.102 4.60846L11.9614 3.74908C12.3579 3.35246 12.8286 3.03784 13.3467 2.82319C13.8648 2.60853 14.4201 2.49805 14.9809 2.49805C15.5417 2.49805 16.097 2.60853 16.6151 2.82319C17.1332 3.03784 17.604 3.35246 18.0004 3.74908C18.4111 4.16077 18.7337 4.65171 18.9486 5.19204C19.1635 5.73237 19.2662 6.31077 19.2504 6.89205ZM9.01607 14.5038L8.1567 15.3631C7.8764 15.6453 7.54281 15.8689 7.17533 16.021C6.80784 16.1731 6.41378 16.2506 6.01607 16.2491C5.41943 16.2486 4.83632 16.0713 4.34042 15.7395C3.84451 15.4078 3.45807 14.9365 3.22991 14.3852C3.00175 13.8339 2.94212 13.2274 3.05855 12.6422C3.17497 12.057 3.46224 11.5195 3.88404 11.0975L6.5942 8.38267C7.02106 7.95356 7.56709 7.66271 8.16138 7.5479C8.75566 7.43309 9.37074 7.49963 9.92672 7.73887C10.4827 7.97811 10.9539 8.379 11.2791 8.88948C11.6044 9.39995 11.7686 9.99642 11.7504 10.6014C11.7458 10.7672 11.8072 10.928 11.9211 11.0485C12.035 11.169 12.1921 11.2393 12.3579 11.244C12.5236 11.2487 12.6845 11.1873 12.805 11.0734C12.9255 10.9595 12.9958 10.8023 13.0004 10.6366C13.0155 10.0562 12.9124 9.47885 12.6975 8.93952C12.4826 8.40018 12.1604 7.91013 11.7504 7.49908C10.9498 6.69879 9.86412 6.24922 8.73209 6.24922C7.60006 6.24922 6.51437 6.69879 5.71373 7.49908L3.00045 10.2139C2.40375 10.8104 1.99726 11.5703 1.83233 12.3977C1.6674 13.2251 1.75145 14.0829 2.07384 14.8625C2.39624 15.6422 2.94252 16.3088 3.64364 16.778C4.34476 17.2473 5.16926 17.4982 6.01295 17.4991C6.57378 17.5007 7.12937 17.3911 7.64754 17.1765C8.16571 16.9619 8.63618 16.6467 9.0317 16.2491L9.89107 15.3897C9.99222 15.2706 10.0451 15.1179 10.0392 14.9617C10.0333 14.8055 9.96912 14.6572 9.8593 14.546C9.74948 14.4348 9.60198 14.3688 9.4459 14.361C9.28981 14.3532 9.13646 14.4041 9.01607 14.5038Z" fill="#566FE9"/>
</svg>
