<svg width="21" height="20" viewBox="0 0 21 20" fill="none" xmlns="http://www.w3.org/2000/svg">
<path d="M15.9362 10.0828L11.9065 8.59375L10.4221 4.56094C10.3342 4.32213 10.1752 4.11604 9.96647 3.97046C9.75775 3.82488 9.5094 3.74682 9.25493 3.74682C9.00046 3.74682 8.75212 3.82488 8.5434 3.97046C8.33469 4.11604 8.17565 4.32213 8.08775 4.56094L6.594 8.59375L2.56118 10.0781C2.32238 10.166 2.11628 10.3251 1.9707 10.5338C1.82513 10.7425 1.74707 10.9908 1.74707 11.2453C1.74707 11.4998 1.82513 11.7481 1.9707 11.9568C2.11628 12.1656 2.32238 12.3246 2.56118 12.4125L6.594 13.9063L8.07837 17.9391C8.16628 18.1779 8.32531 18.384 8.53403 18.5295C8.74274 18.6751 8.99109 18.7532 9.24556 18.7532C9.50003 18.7532 9.74838 18.6751 9.95709 18.5295C10.1658 18.384 10.3248 18.1779 10.4127 17.9391L11.9065 13.9063L15.9393 12.4219C16.1781 12.334 16.3842 12.1749 16.5298 11.9662C16.6754 11.7575 16.7534 11.5092 16.7534 11.2547C16.7534 11.0002 16.6754 10.7519 16.5298 10.5432C16.3842 10.3344 16.1781 10.1754 15.9393 10.0875L15.9362 10.0828ZM11.2034 12.8297C11.1185 12.861 11.0415 12.9103 10.9776 12.9742C10.9136 13.0381 10.8643 13.1152 10.8331 13.2L9.25025 17.4883L7.67056 13.2031C7.63934 13.1174 7.58974 13.0395 7.52522 12.975C7.46071 12.9105 7.38285 12.8609 7.29712 12.8297L3.01197 11.25L7.29712 9.67031C7.38285 9.6391 7.46071 9.58949 7.52522 9.52498C7.58974 9.46046 7.63934 9.38261 7.67056 9.29688L9.25025 5.01172L10.8299 9.29688C10.8612 9.38171 10.9105 9.45876 10.9744 9.52269C11.0384 9.58662 11.1154 9.63592 11.2002 9.66719L15.4885 11.25L11.2034 12.8297ZM11.7502 3.125C11.7502 2.95924 11.8161 2.80027 11.9333 2.68306C12.0505 2.56585 12.2095 2.5 12.3752 2.5H13.6252V1.25C13.6252 1.08424 13.6911 0.925269 13.8083 0.808058C13.9255 0.690848 14.0845 0.625 14.2502 0.625C14.416 0.625 14.575 0.690848 14.6922 0.808058C14.8094 0.925269 14.8752 1.08424 14.8752 1.25V2.5H16.1252C16.291 2.5 16.45 2.56585 16.5672 2.68306C16.6844 2.80027 16.7502 2.95924 16.7502 3.125C16.7502 3.29076 16.6844 3.44973 16.5672 3.56694C16.45 3.68415 16.291 3.75 16.1252 3.75H14.8752V5C14.8752 5.16576 14.8094 5.32473 14.6922 5.44194C14.575 5.55915 14.416 5.625 14.2502 5.625C14.0845 5.625 13.9255 5.55915 13.8083 5.44194C13.6911 5.32473 13.6252 5.16576 13.6252 5V3.75H12.3752C12.2095 3.75 12.0505 3.68415 11.9333 3.56694C11.8161 3.44973 11.7502 3.29076 11.7502 3.125ZM19.8752 6.875C19.8752 7.04076 19.8094 7.19973 19.6922 7.31694C19.575 7.43415 19.416 7.5 19.2502 7.5H18.6252V8.125C18.6252 8.29076 18.5594 8.44973 18.4422 8.56694C18.325 8.68415 18.166 8.75 18.0002 8.75C17.8345 8.75 17.6755 8.68415 17.5583 8.56694C17.4411 8.44973 17.3752 8.29076 17.3752 8.125V7.5H16.7502C16.5845 7.5 16.4255 7.43415 16.3083 7.31694C16.1911 7.19973 16.1252 7.04076 16.1252 6.875C16.1252 6.70924 16.1911 6.55027 16.3083 6.43306C16.4255 6.31585 16.5845 6.25 16.7502 6.25H17.3752V5.625C17.3752 5.45924 17.4411 5.30027 17.5583 5.18306C17.6755 5.06585 17.8345 5 18.0002 5C18.166 5 18.325 5.06585 18.4422 5.18306C18.5594 5.30027 18.6252 5.45924 18.6252 5.625V6.25H19.2502C19.416 6.25 19.575 6.31585 19.6922 6.43306C19.8094 6.55027 19.8752 6.70924 19.8752 6.875Z" fill="white"/>
</svg>
