<svg width="24" height="24" viewBox="0 0 24 24" fill="none" xmlns="http://www.w3.org/2000/svg">
<g clip-path="url(#clip0_3004_4854)">
<path d="M17.4349 3.79297C15.467 3.79297 13.9286 5.27212 12.536 7.15109C10.6224 4.71951 9.02197 3.79297 7.10675 3.79297C3.20208 3.79297 0.210327 8.86407 0.210327 14.2315C0.210327 17.5903 1.83862 19.7088 4.56597 19.7088C6.52894 19.7088 7.94071 18.7852 10.4505 14.4072C10.4505 14.4072 11.4967 12.5635 12.2164 11.2934C12.4686 11.6998 12.7342 12.1376 13.0133 12.607L14.1902 14.5828C16.4827 18.4113 17.7601 19.7088 20.0747 19.7088C22.7317 19.7088 24.2103 17.5614 24.2103 14.1328C24.2103 8.51283 21.1511 3.79297 17.4349 3.79297ZM8.53664 13.2217C6.5018 16.4049 5.79786 17.1183 4.66496 17.1183C3.49905 17.1183 2.80611 16.0969 2.80611 14.2754C2.80611 10.3788 4.75295 6.39438 7.07376 6.39438C8.33053 6.39438 9.38079 7.11871 10.9895 9.417C9.46196 11.7552 8.53664 13.2217 8.53664 13.2217ZM16.2164 12.821L14.8092 10.479C14.4284 9.86096 14.0625 9.29207 13.7113 8.77235C14.9796 6.81892 16.0257 5.84556 17.2699 5.84556C19.8547 5.84556 21.9225 9.6434 21.9225 14.3084C21.9225 16.0866 21.3389 17.1183 20.1297 17.1183C18.9707 17.1183 18.417 16.3545 16.2164 12.821Z" fill="#566FE9"/>
</g>
<defs>
<clipPath id="clip0_3004_4854">
<rect width="24" height="24" fill="white"/>
</clipPath>
</defs>
</svg>
