<svg width="18" height="20" viewBox="0 0 18 20" fill="none" xmlns="http://www.w3.org/2000/svg">
<path d="M2.25001 7V13C2.25001 13.1989 2.17099 13.3897 2.03034 13.5303C1.88968 13.671 1.69892 13.75 1.50001 13.75C1.30109 13.75 1.11033 13.671 0.969675 13.5303C0.829023 13.3897 0.750005 13.1989 0.750005 13V7C0.750005 6.80109 0.829023 6.61032 0.969675 6.46967C1.11033 6.32902 1.30109 6.25 1.50001 6.25C1.69892 6.25 1.88968 6.32902 2.03034 6.46967C2.17099 6.61032 2.25001 6.80109 2.25001 7ZM2.05501 1.24562C1.98914 1.17138 1.9092 1.11095 1.81981 1.06783C1.73041 1.02471 1.63335 0.99976 1.53425 0.994428C1.43514 0.989097 1.33597 1.00349 1.24246 1.03677C1.14896 1.07005 1.063 1.12156 0.989546 1.18831C0.916097 1.25505 0.856627 1.33572 0.814583 1.42562C0.772538 1.51552 0.748754 1.61288 0.744611 1.71204C0.740468 1.8112 0.756048 1.9102 0.790447 2.00329C0.824846 2.09639 0.877381 2.18173 0.945006 2.25437L4.50001 6.16469V19C4.50001 19.1989 4.57902 19.3897 4.71968 19.5303C4.86033 19.671 5.05109 19.75 5.25001 19.75C5.44892 19.75 5.63968 19.671 5.78034 19.5303C5.92099 19.3897 6.00001 19.1989 6.00001 19V7.81469L8.25001 10.2897V16C8.25001 16.1989 8.32902 16.3897 8.46968 16.5303C8.61033 16.671 8.80109 16.75 9.00001 16.75C9.19892 16.75 9.38968 16.671 9.53034 16.5303C9.67099 16.3897 9.75001 16.1989 9.75001 16V11.9397L15.945 18.7544C16.0109 18.8286 16.0908 18.8891 16.1802 18.9322C16.2696 18.9753 16.3667 19.0002 16.4658 19.0056C16.5649 19.0109 16.664 18.9965 16.7575 18.9632C16.851 18.93 16.937 18.8784 17.0105 18.8117C17.0839 18.7449 17.1434 18.6643 17.1854 18.5744C17.2275 18.4845 17.2513 18.3871 17.2554 18.288C17.2595 18.1888 17.244 18.0898 17.2096 17.9967C17.1752 17.9036 17.1226 17.8183 17.055 17.7456L2.05501 1.24562ZM5.25001 2.16531C5.44892 2.16531 5.63968 2.08629 5.78034 1.94564C5.92099 1.80499 6.00001 1.61422 6.00001 1.41531V1C6.00001 0.801088 5.92099 0.610322 5.78034 0.46967C5.63968 0.329018 5.44892 0.25 5.25001 0.25C5.05109 0.25 4.86033 0.329018 4.71968 0.46967C4.57902 0.610322 4.50001 0.801088 4.50001 1V1.41531C4.50001 1.61422 4.57902 1.80499 4.71968 1.94564C4.86033 2.08629 5.05109 2.16531 5.25001 2.16531ZM9.00001 6.29031C9.19892 6.29031 9.38968 6.21129 9.53034 6.07064C9.67099 5.92999 9.75001 5.73922 9.75001 5.54031V4C9.75001 3.80109 9.67099 3.61032 9.53034 3.46967C9.38968 3.32902 9.19892 3.25 9.00001 3.25C8.80109 3.25 8.61033 3.32902 8.46968 3.46967C8.32902 3.61032 8.25001 3.80109 8.25001 4V5.54031C8.25001 5.73922 8.32902 5.92999 8.46968 6.07064C8.61033 6.21129 8.80109 6.29031 9.00001 6.29031ZM12.75 10.4153C12.9489 10.4153 13.1397 10.3363 13.2803 10.1956C13.421 10.055 13.5 9.86422 13.5 9.66531V7C13.5 6.80109 13.421 6.61032 13.2803 6.46967C13.1397 6.32902 12.9489 6.25 12.75 6.25C12.5511 6.25 12.3603 6.32902 12.2197 6.46967C12.079 6.61032 12 6.80109 12 7V9.66531C12 9.86422 12.079 10.055 12.2197 10.1956C12.3603 10.3363 12.5511 10.4153 12.75 10.4153ZM16.5 4.75C16.3011 4.75 16.1103 4.82902 15.9697 4.96967C15.829 5.11032 15.75 5.30109 15.75 5.5V13.7903C15.75 13.9892 15.829 14.18 15.9697 14.3206C16.1103 14.4613 16.3011 14.5403 16.5 14.5403C16.6989 14.5403 16.8897 14.4613 17.0303 14.3206C17.171 14.18 17.25 13.9892 17.25 13.7903V5.5C17.25 5.30109 17.171 5.11032 17.0303 4.96967C16.8897 4.82902 16.6989 4.75 16.5 4.75Z" fill="#566FE9"/>
</svg>
