<svg width="18" height="20" viewBox="0 0 18 20" fill="none" xmlns="http://www.w3.org/2000/svg">
<path d="M2.25 7V13C2.25 13.1989 2.17098 13.3897 2.03033 13.5303C1.88968 13.671 1.69891 13.75 1.5 13.75C1.30109 13.75 1.11032 13.671 0.96967 13.5303C0.829018 13.3897 0.75 13.1989 0.75 13V7C0.75 6.80109 0.829018 6.61032 0.96967 6.46967C1.11032 6.32902 1.30109 6.25 1.5 6.25C1.69891 6.25 1.88968 6.32902 2.03033 6.46967C2.17098 6.61032 2.25 6.80109 2.25 7ZM5.25 0.25C5.05109 0.25 4.86032 0.329018 4.71967 0.46967C4.57902 0.610322 4.5 0.801088 4.5 1V19C4.5 19.1989 4.57902 19.3897 4.71967 19.5303C4.86032 19.671 5.05109 19.75 5.25 19.75C5.44891 19.75 5.63968 19.671 5.78033 19.5303C5.92098 19.3897 6 19.1989 6 19V1C6 0.801088 5.92098 0.610322 5.78033 0.46967C5.63968 0.329018 5.44891 0.25 5.25 0.25ZM9 3.25C8.80109 3.25 8.61032 3.32902 8.46967 3.46967C8.32902 3.61032 8.25 3.80109 8.25 4V16C8.25 16.1989 8.32902 16.3897 8.46967 16.5303C8.61032 16.671 8.80109 16.75 9 16.75C9.19891 16.75 9.38968 16.671 9.53033 16.5303C9.67098 16.3897 9.75 16.1989 9.75 16V4C9.75 3.80109 9.67098 3.61032 9.53033 3.46967C9.38968 3.32902 9.19891 3.25 9 3.25ZM12.75 6.25C12.5511 6.25 12.3603 6.32902 12.2197 6.46967C12.079 6.61032 12 6.80109 12 7V13C12 13.1989 12.079 13.3897 12.2197 13.5303C12.3603 13.671 12.5511 13.75 12.75 13.75C12.9489 13.75 13.1397 13.671 13.2803 13.5303C13.421 13.3897 13.5 13.1989 13.5 13V7C13.5 6.80109 13.421 6.61032 13.2803 6.46967C13.1397 6.32902 12.9489 6.25 12.75 6.25ZM16.5 4.75C16.3011 4.75 16.1103 4.82902 15.9697 4.96967C15.829 5.11032 15.75 5.30109 15.75 5.5V14.5C15.75 14.6989 15.829 14.8897 15.9697 15.0303C16.1103 15.171 16.3011 15.25 16.5 15.25C16.6989 15.25 16.8897 15.171 17.0303 15.0303C17.171 14.8897 17.25 14.6989 17.25 14.5V5.5C17.25 5.30109 17.171 5.11032 17.0303 4.96967C16.8897 4.82902 16.6989 4.75 16.5 4.75Z" fill="#566FE9"/>
</svg>
