<svg width="19" height="19" viewBox="0 0 19 19" fill="none" xmlns="http://www.w3.org/2000/svg">
<path d="M18.3113 4.87821L14.1216 0.689461C13.9823 0.550137 13.8169 0.439617 13.6349 0.364213C13.4529 0.28881 13.2578 0.25 13.0608 0.25C12.8638 0.25 12.6687 0.28881 12.4867 0.364213C12.3047 0.439617 12.1393 0.550137 12 0.689461L0.439695 12.2498C0.299801 12.3886 0.188889 12.5538 0.113407 12.7358C0.0379245 12.9178 -0.000621974 13.113 7.58901e-06 13.3101V17.4998C7.58901e-06 17.8976 0.158043 18.2791 0.439347 18.5604C0.720652 18.8417 1.10218 18.9998 1.50001 18.9998H5.68969C5.88675 19.0004 6.08196 18.9619 6.26399 18.8864C6.44602 18.8109 6.61122 18.7 6.75001 18.5601L14.5941 10.717L14.9203 12.0201L11.4703 15.4691C11.3296 15.6098 11.2505 15.8005 11.2504 15.9994C11.2503 16.1984 11.3292 16.3892 11.4699 16.5299C11.6105 16.6707 11.8012 16.7498 12.0001 16.7499C12.1991 16.7499 12.3899 16.671 12.5306 16.5304L16.2806 12.7804C16.3724 12.6888 16.4388 12.5751 16.4734 12.4502C16.5081 12.3254 16.5098 12.1936 16.4784 12.0679L15.8316 9.47946L18.3113 6.99977C18.4506 6.86048 18.5611 6.69511 18.6365 6.5131C18.7119 6.33109 18.7507 6.136 18.7507 5.93899C18.7507 5.74198 18.7119 5.5469 18.6365 5.36489C18.5611 5.18288 18.4506 5.0175 18.3113 4.87821ZM1.50001 14.8101L4.18969 17.4998H1.50001V14.8101ZM6.00001 17.1895L1.81032 12.9998L9.75001 5.06009L13.9397 9.24977L6.00001 17.1895ZM15 8.18946L10.8113 3.99977L13.0613 1.74977L17.25 5.93946L15 8.18946Z" fill="#566FE9"/>
</svg>
