<svg width="25" height="24" viewBox="0 0 25 24" fill="none" xmlns="http://www.w3.org/2000/svg">
<path d="M24.4095 8.88766C24.3001 8.55136 24.0937 8.25496 23.8161 8.0358C23.5386 7.81664 23.2023 7.68452 22.8498 7.6561L16.3967 7.13547L13.9052 1.11C13.7704 0.781679 13.5411 0.500839 13.2463 0.303187C12.9515 0.105535 12.6047 0 12.2498 0C11.8949 0 11.548 0.105535 11.2532 0.303187C10.9585 0.500839 10.7291 0.781679 10.5944 1.11L8.105 7.13438L1.64859 7.6561C1.29551 7.68596 0.959082 7.81936 0.681472 8.03957C0.403862 8.25979 0.197412 8.55703 0.0879884 8.89406C-0.0214355 9.23109 -0.0289668 9.59292 0.0663378 9.93421C0.161642 10.2755 0.355544 10.5811 0.62375 10.8127L5.54563 15.0597L4.04609 21.41C3.96223 21.755 3.98276 22.1171 4.10509 22.4504C4.22742 22.7838 4.44602 23.0732 4.73314 23.282C5.02027 23.4909 5.36298 23.6097 5.71775 23.6234C6.07253 23.6371 6.42339 23.5451 6.72578 23.3591L12.2492 19.9597L17.7759 23.3591C18.0784 23.5429 18.4286 23.6332 18.7823 23.6184C19.1359 23.6037 19.4773 23.4846 19.7635 23.2762C20.0496 23.0678 20.2677 22.7794 20.3903 22.4473C20.5129 22.1153 20.5345 21.7543 20.4523 21.41L18.9473 15.0586L23.8692 10.8116C24.1396 10.5804 24.3353 10.2741 24.4315 9.93164C24.5276 9.58915 24.52 9.22581 24.4095 8.88766ZM22.7317 9.48594L17.4052 14.0797C17.2837 14.1844 17.1933 14.3205 17.1439 14.473C17.0946 14.6256 17.0881 14.7888 17.1252 14.9448L18.7527 21.8136C18.7569 21.8231 18.7573 21.8338 18.7538 21.8436C18.7504 21.8533 18.7433 21.8614 18.7341 21.8661C18.7144 21.8814 18.7089 21.8781 18.6925 21.8661L12.7075 18.1856C12.5697 18.1009 12.411 18.056 12.2492 18.056C12.0874 18.056 11.9288 18.1009 11.7909 18.1856L5.80594 21.8683C5.78953 21.8781 5.78516 21.8814 5.76438 21.8683C5.75514 21.8636 5.74807 21.8555 5.74461 21.8457C5.74115 21.836 5.74157 21.8253 5.74578 21.8158L7.37328 14.947C7.41037 14.791 7.40387 14.6278 7.35449 14.4752C7.30511 14.3227 7.21475 14.1866 7.09328 14.0819L1.76672 9.48813C1.75359 9.47719 1.74156 9.46735 1.7525 9.43344C1.76344 9.39954 1.77219 9.40391 1.78859 9.40172L8.77984 8.83735C8.9402 8.82359 9.09365 8.76588 9.22333 8.67055C9.353 8.57523 9.45387 8.44598 9.51484 8.29704L12.2077 1.77719C12.2164 1.7586 12.2197 1.74985 12.2459 1.74985C12.2722 1.74985 12.2755 1.7586 12.2842 1.77719L14.9836 8.29704C15.0451 8.44604 15.1467 8.57514 15.2769 8.6701C15.4072 8.76506 15.5612 8.82218 15.7219 8.83516L22.7131 9.39954C22.7295 9.39954 22.7394 9.39954 22.7492 9.43125C22.7591 9.46297 22.7492 9.47501 22.7317 9.48594Z" fill="#566FE9"/>
</svg>
