<svg width="40" height="40" viewBox="0 0 40 40" fill="none" xmlns="http://www.w3.org/2000/svg">
<rect width="40" height="40" rx="20" fill="#566FE9"/>
<path d="M20 11.875C18.393 11.875 16.8221 12.3515 15.486 13.2443C14.1498 14.1371 13.1084 15.406 12.4935 16.8907C11.8785 18.3753 11.7176 20.009 12.0311 21.5851C12.3446 23.1612 13.1185 24.6089 14.2548 25.7452C15.3911 26.8815 16.8388 27.6554 18.4149 27.9689C19.991 28.2824 21.6247 28.1215 23.1093 27.5065C24.594 26.8916 25.8629 25.8502 26.7557 24.514C27.6485 23.1779 28.125 21.607 28.125 20C28.1227 17.8458 27.266 15.7805 25.7427 14.2573C24.2195 12.734 22.1542 11.8773 20 11.875ZM20 26.875C18.6403 26.875 17.311 26.4718 16.1805 25.7164C15.0499 24.9609 14.1687 23.8872 13.6483 22.6309C13.128 21.3747 12.9918 19.9924 13.2571 18.6588C13.5224 17.3251 14.1772 16.1001 15.1386 15.1386C16.1001 14.1772 17.3251 13.5224 18.6588 13.2571C19.9924 12.9918 21.3747 13.128 22.631 13.6483C23.8872 14.1687 24.9609 15.0499 25.7164 16.1805C26.4718 17.311 26.875 18.6403 26.875 20C26.8729 21.8227 26.1479 23.5702 24.8591 24.8591C23.5702 26.1479 21.8227 26.8729 20 26.875ZM22.5 16.875H17.5C17.3342 16.875 17.1753 16.9408 17.0581 17.0581C16.9409 17.1753 16.875 17.3342 16.875 17.5V22.5C16.875 22.6658 16.9409 22.8247 17.0581 22.9419C17.1753 23.0592 17.3342 23.125 17.5 23.125H22.5C22.6658 23.125 22.8247 23.0592 22.9419 22.9419C23.0592 22.8247 23.125 22.6658 23.125 22.5V17.5C23.125 17.3342 23.0592 17.1753 22.9419 17.0581C22.8247 16.9408 22.6658 16.875 22.5 16.875ZM21.875 21.875H18.125V18.125H21.875V21.875Z" fill="white"/>
</svg>
