<svg width="56" height="56" viewBox="0 0 56 56" fill="none" xmlns="http://www.w3.org/2000/svg">
<rect width="56" height="56" rx="28" fill="#566FE9" fill-opacity="0.1"/>
<path d="M28 18.25C26.0716 18.25 24.1866 18.8218 22.5832 19.8932C20.9798 20.9645 19.7301 22.4873 18.9922 24.2688C18.2542 26.0504 18.0611 28.0108 18.4373 29.9021C18.8136 31.7934 19.7422 33.5307 21.1057 34.8943C22.4693 36.2579 24.2066 37.1865 26.0979 37.5627C27.9892 37.9389 29.9496 37.7458 31.7312 37.0078C33.5127 36.2699 35.0355 35.0202 36.1068 33.4168C37.1782 31.8134 37.75 29.9284 37.75 28C37.7473 25.415 36.7192 22.9366 34.8913 21.1087C33.0634 19.2808 30.585 18.2527 28 18.25ZM28 36.25C26.3683 36.25 24.7733 35.7661 23.4165 34.8596C22.0598 33.9531 21.0024 32.6646 20.378 31.1571C19.7536 29.6496 19.5902 27.9908 19.9085 26.3905C20.2269 24.7902 21.0126 23.3202 22.1664 22.1664C23.3202 21.0126 24.7902 20.2268 26.3905 19.9085C27.9909 19.5902 29.6497 19.7536 31.1571 20.378C32.6646 21.0024 33.9531 22.0598 34.8596 23.4165C35.7661 24.7733 36.25 26.3683 36.25 28C36.2475 30.1873 35.3775 32.2843 33.8309 33.8309C32.2843 35.3775 30.1873 36.2475 28 36.25ZM28 21.25C26.665 21.25 25.3599 21.6459 24.2499 22.3876C23.1399 23.1293 22.2747 24.1835 21.7638 25.4169C21.2529 26.6503 21.1193 28.0075 21.3797 29.3169C21.6402 30.6262 22.283 31.829 23.227 32.773C24.171 33.717 25.3738 34.3599 26.6831 34.6203C27.9925 34.8808 29.3497 34.7471 30.5831 34.2362C31.8165 33.7253 32.8707 32.8601 33.6124 31.7501C34.3541 30.6401 34.75 29.335 34.75 28C34.748 26.2104 34.0362 24.4947 32.7708 23.2292C31.5053 21.9638 29.7896 21.252 28 21.25ZM28 33.25C26.9617 33.25 25.9466 32.9421 25.0833 32.3652C24.2199 31.7883 23.547 30.9684 23.1496 30.0091C22.7523 29.0498 22.6483 27.9942 22.8509 26.9758C23.0535 25.9574 23.5535 25.0219 24.2877 24.2877C25.0219 23.5535 25.9574 23.0535 26.9758 22.8509C27.9942 22.6483 29.0498 22.7523 30.0091 23.1496C30.9684 23.547 31.7883 24.2199 32.3652 25.0833C32.9421 25.9466 33.25 26.9616 33.25 28C33.2485 29.3919 32.6949 30.7264 31.7107 31.7107C30.7264 32.6949 29.3919 33.2485 28 33.25Z" fill="#566FE9"/>
</svg>
