<svg width="24" height="24" viewBox="0 0 24 24" fill="none" xmlns="http://www.w3.org/2000/svg">
<mask id="mask0_4136_4169" style="mask-type:alpha" maskUnits="userSpaceOnUse" x="0" y="0" width="24" height="24">
<rect width="24" height="24" transform="matrix(-1 8.74228e-08 8.74228e-08 1 24 0)" fill="#E74C3C"/>
</mask>
<g mask="url(#mask0_4136_4169)">
<path d="M11.9904 15.6923L8.3462 12.0481L9.3904 11.0039L11.2404 12.8539L11.2404 8.29808L12.75 8.29808L12.75 12.8539L14.6 11.0039L15.6442 12.0481L11.9904 15.6923ZM11.9984 21.5C13.3123 21.5 14.5473 21.2506 15.7035 20.752C16.8596 20.2533 17.8653 19.5765 18.7205 18.7217C19.5757 17.8669 20.2528 16.8616 20.7517 15.706C21.2506 14.5504 21.5 13.3156 21.5 12.0017C21.5 10.6877 21.2507 9.45268 20.752 8.29655C20.2533 7.1404 19.5766 6.13472 18.7218 5.2795C17.8669 4.42427 16.8617 3.74721 15.706 3.24833C14.5504 2.74944 13.3156 2.5 12.0017 2.5C10.6878 2.5 9.45273 2.74934 8.2966 3.248C7.14045 3.74667 6.13477 4.42342 5.27955 5.27825C4.42431 6.1331 3.74726 7.13834 3.24837 8.29398C2.74949 9.44959 2.50005 10.6844 2.50005 11.9983C2.50005 13.3122 2.74938 14.5473 3.24805 15.7034C3.74672 16.8596 4.42347 17.8652 5.2783 18.7205C6.13315 19.5757 7.13839 20.2527 8.29403 20.7516C9.44964 21.2505 10.6844 21.5 11.9984 21.5Z" fill="#E35746"/>
</g>
</svg>
