<svg width="40" height="40" viewBox="0 0 40 40" fill="none" xmlns="http://www.w3.org/2000/svg">
<rect width="40" height="40" rx="20" fill="#566FE9" fill-opacity="0.1"/>
<path d="M11.875 20.0003C11.8767 18.509 12.4698 17.0792 13.5244 16.0247C14.5789 14.9702 16.0087 14.377 17.5 14.3753H25.9914L25.1828 13.5675C25.0655 13.4503 24.9997 13.2912 24.9997 13.1253C24.9997 12.9595 25.0655 12.8004 25.1828 12.6832C25.3001 12.5659 25.4592 12.5 25.625 12.5C25.7909 12.5 25.9499 12.5659 26.0672 12.6832L27.9422 14.5582C28.0003 14.6162 28.0464 14.6851 28.0779 14.761C28.1093 14.8369 28.1255 14.9182 28.1255 15.0003C28.1255 15.0825 28.1093 15.1638 28.0779 15.2397C28.0464 15.3156 28.0003 15.3845 27.9422 15.4425L26.0672 17.3175C25.9499 17.4348 25.7909 17.5007 25.625 17.5007C25.4592 17.5007 25.3001 17.4348 25.1828 17.3175C25.0655 17.2003 24.9997 17.0412 24.9997 16.8753C24.9997 16.7095 25.0655 16.5504 25.1828 16.4332L25.9914 15.6253H17.5C16.3401 15.6266 15.228 16.0879 14.4078 16.9081C13.5876 17.7283 13.1262 18.8404 13.125 20.0003C13.125 20.1661 13.0592 20.3251 12.9419 20.4423C12.8247 20.5595 12.6658 20.6253 12.5 20.6253C12.3342 20.6253 12.1753 20.5595 12.0581 20.4423C11.9409 20.3251 11.875 20.1661 11.875 20.0003ZM27.5 19.3753C27.3342 19.3753 27.1753 19.4412 27.0581 19.5584C26.9409 19.6756 26.875 19.8346 26.875 20.0003C26.8738 21.1603 26.4124 22.2724 25.5922 23.0926C24.772 23.9128 23.6599 24.3741 22.5 24.3753H14.0086L14.8172 23.5675C14.8753 23.5095 14.9213 23.4405 14.9527 23.3647C14.9842 23.2888 15.0004 23.2075 15.0004 23.1253C15.0004 23.0432 14.9842 22.9619 14.9527 22.886C14.9213 22.8102 14.8753 22.7412 14.8172 22.6832C14.7591 22.6251 14.6902 22.579 14.6143 22.5476C14.5384 22.5162 14.4571 22.5 14.375 22.5C14.2929 22.5 14.2116 22.5162 14.1357 22.5476C14.0598 22.579 13.9909 22.6251 13.9328 22.6832L12.0578 24.5582C11.9997 24.6162 11.9536 24.6851 11.9222 24.761C11.8907 24.8369 11.8745 24.9182 11.8745 25.0003C11.8745 25.0825 11.8907 25.1638 11.9222 25.2397C11.9536 25.3156 11.9997 25.3845 12.0578 25.4425L13.9328 27.3175C13.9909 27.3756 14.0598 27.4217 14.1357 27.4531C14.2116 27.4845 14.2929 27.5007 14.375 27.5007C14.4571 27.5007 14.5384 27.4845 14.6143 27.4531C14.6902 27.4217 14.7591 27.3756 14.8172 27.3175C14.8753 27.2595 14.9213 27.1905 14.9527 27.1147C14.9842 27.0388 15.0004 26.9575 15.0004 26.8753C15.0004 26.7932 14.9842 26.7119 14.9527 26.636C14.9213 26.5602 14.8753 26.4912 14.8172 26.4332L14.0086 25.6253H22.5C23.9913 25.6237 25.4211 25.0305 26.4757 23.976C27.5302 22.9215 28.1233 21.4917 28.125 20.0003C28.125 19.8346 28.0592 19.6756 27.9419 19.5584C27.8247 19.4412 27.6658 19.3753 27.5 19.3753Z" fill="#566FE9"/>
</svg>
