<svg width="20" height="20" viewBox="0 0 20 20" fill="none" xmlns="http://www.w3.org/2000/svg">
<path d="M1.87452 10.0003C1.87617 8.50901 2.46933 7.07923 3.52387 6.0247C4.5784 4.97017 6.00818 4.377 7.49952 4.37535H15.9909L15.1823 3.56753C15.0651 3.45026 14.9992 3.2912 14.9992 3.12535C14.9992 2.9595 15.0651 2.80044 15.1823 2.68316C15.2996 2.56588 15.4587 2.5 15.6245 2.5C15.7904 2.5 15.9494 2.56588 16.0667 2.68316L17.9417 4.55816C17.9998 4.61621 18.0459 4.68514 18.0774 4.76101C18.1088 4.83688 18.125 4.91821 18.125 5.00035C18.125 5.08248 18.1088 5.16381 18.0774 5.23969C18.0459 5.31556 17.9998 5.38449 17.9417 5.44254L16.0667 7.31754C15.9494 7.43481 15.7904 7.5007 15.6245 7.5007C15.4587 7.50069 15.2996 7.43481 15.1823 7.31754C15.0651 7.20026 14.9992 7.0412 14.9992 6.87535C14.9992 6.7095 15.0651 6.55044 15.1823 6.43316L15.9909 5.62535H7.49952C6.33957 5.62659 5.2275 6.08792 4.40729 6.90813C3.58709 7.72833 3.12576 8.84041 3.12452 10.0003C3.12452 10.1661 3.05867 10.3251 2.94146 10.4423C2.82425 10.5595 2.66528 10.6253 2.49952 10.6253C2.33375 10.6253 2.17478 10.5595 2.05757 10.4423C1.94036 10.3251 1.87452 10.1661 1.87452 10.0003ZM17.4995 9.37535C17.3338 9.37535 17.1748 9.4412 17.0576 9.55841C16.9404 9.67562 16.8745 9.83459 16.8745 10.0003C16.8733 11.1603 16.4119 12.2724 15.5917 13.0926C14.7715 13.9128 13.6595 14.3741 12.4995 14.3753H4.00811L4.8167 13.5675C4.87477 13.5095 4.92083 13.4405 4.95226 13.3647C4.98369 13.2888 4.99986 13.2075 4.99986 13.1253C4.99986 13.0432 4.98369 12.9619 4.95226 12.886C4.92083 12.8102 4.87477 12.7412 4.8167 12.6832C4.75863 12.6251 4.6897 12.579 4.61383 12.5476C4.53795 12.5162 4.45664 12.5 4.37452 12.5C4.29239 12.5 4.21108 12.5162 4.1352 12.5476C4.05933 12.579 3.9904 12.6251 3.93233 12.6832L2.05733 14.5582C1.99922 14.6162 1.95312 14.6851 1.92167 14.761C1.89021 14.8369 1.87402 14.9182 1.87402 15.0003C1.87402 15.0825 1.89021 15.1638 1.92167 15.2397C1.95312 15.3156 1.99922 15.3845 2.05733 15.4425L3.93233 17.3175C3.9904 17.3756 4.05933 17.4217 4.1352 17.4531C4.21108 17.4845 4.29239 17.5007 4.37452 17.5007C4.45664 17.5007 4.53795 17.4845 4.61383 17.4531C4.6897 17.4217 4.75863 17.3756 4.8167 17.3175C4.87477 17.2595 4.92083 17.1905 4.95226 17.1147C4.98369 17.0388 4.99986 16.9575 4.99986 16.8753C4.99986 16.7932 4.98369 16.7119 4.95226 16.636C4.92083 16.5602 4.87477 16.4912 4.8167 16.4332L4.00811 15.6253H12.4995C13.9908 15.6237 15.4206 15.0305 16.4752 13.976C17.5297 12.9215 18.1229 11.4917 18.1245 10.0003C18.1245 9.83459 18.0587 9.67562 17.9415 9.55841C17.8242 9.4412 17.6653 9.37535 17.4995 9.37535Z" fill="#566FE9"/>
</svg>
