<svg width="25" height="26" viewBox="0 0 25 26" fill="none" xmlns="http://www.w3.org/2000/svg">
<path d="M23.2034 10.2459C22.7911 9.815 22.3645 9.37094 22.2038 8.98047C22.055 8.62281 22.0462 8.03 22.0375 7.45578C22.0211 6.38828 22.0036 5.17859 21.1625 4.3375C20.3214 3.49641 19.1117 3.47891 18.0442 3.4625C17.47 3.45375 16.8772 3.445 16.5195 3.29625C16.1302 3.13547 15.685 2.70891 15.2541 2.29656C14.4994 1.57141 13.6419 0.75 12.5 0.75C11.3581 0.75 10.5017 1.57141 9.74594 2.29656C9.315 2.70891 8.87094 3.13547 8.48047 3.29625C8.125 3.445 7.53 3.45375 6.95578 3.4625C5.88828 3.47891 4.67859 3.49641 3.8375 4.3375C2.99641 5.17859 2.98438 6.38828 2.9625 7.45578C2.95375 8.03 2.945 8.62281 2.79625 8.98047C2.63547 9.36984 2.20891 9.815 1.79656 10.2459C1.07141 11.0006 0.25 11.8581 0.25 13C0.25 14.1419 1.07141 14.9983 1.79656 15.7541C2.20891 16.185 2.63547 16.6291 2.79625 17.0195C2.945 17.3772 2.95375 17.97 2.9625 18.5442C2.97891 19.6117 2.99641 20.8214 3.8375 21.6625C4.67859 22.5036 5.88828 22.5211 6.95578 22.5375C7.53 22.5462 8.12281 22.555 8.48047 22.7038C8.86984 22.8645 9.315 23.2911 9.74594 23.7034C10.5006 24.4286 11.3581 25.25 12.5 25.25C13.6419 25.25 14.4983 24.4286 15.2541 23.7034C15.685 23.2911 16.1291 22.8645 16.5195 22.7038C16.8772 22.555 17.47 22.5462 18.0442 22.5375C19.1117 22.5211 20.3214 22.5036 21.1625 21.6625C22.0036 20.8214 22.0211 19.6117 22.0375 18.5442C22.0462 17.97 22.055 17.3772 22.2038 17.0195C22.3645 16.6302 22.7911 16.185 23.2034 15.7541C23.9286 14.9994 24.75 14.1419 24.75 13C24.75 11.8581 23.9286 11.0017 23.2034 10.2459ZM21.9402 14.5433C21.4163 15.0902 20.8737 15.6556 20.5861 16.3502C20.3105 17.0173 20.2984 17.7797 20.2875 18.518C20.2766 19.2836 20.2645 20.0853 19.9244 20.4244C19.5842 20.7634 18.788 20.7766 18.018 20.7875C17.2797 20.7984 16.5173 20.8105 15.8502 21.0861C15.1556 21.3737 14.5902 21.9163 14.0433 22.4402C13.4964 22.9641 12.9375 23.5 12.5 23.5C12.0625 23.5 11.4992 22.9619 10.9567 22.4402C10.4142 21.9184 9.84438 21.3737 9.14984 21.0861C8.48266 20.8105 7.72031 20.7984 6.98203 20.7875C6.21641 20.7766 5.41469 20.7645 5.07562 20.4244C4.73656 20.0842 4.72344 19.288 4.7125 18.518C4.70156 17.7797 4.68953 17.0173 4.41391 16.3502C4.12625 15.6556 3.58375 15.0902 3.05984 14.5433C2.53594 13.9964 2 13.4375 2 13C2 12.5625 2.53812 11.9992 3.05984 11.4567C3.58156 10.9142 4.12625 10.3444 4.41391 9.64984C4.68953 8.98266 4.70156 8.22031 4.7125 7.48203C4.72344 6.71641 4.73547 5.91469 5.07562 5.57562C5.41578 5.23656 6.21203 5.22344 6.98203 5.2125C7.72031 5.20156 8.48266 5.18953 9.14984 4.91391C9.84438 4.62625 10.4098 4.08375 10.9567 3.55984C11.5036 3.03594 12.0625 2.5 12.5 2.5C12.9375 2.5 13.5008 3.03812 14.0433 3.55984C14.5858 4.08156 15.1556 4.62625 15.8502 4.91391C16.5173 5.18953 17.2797 5.20156 18.018 5.2125C18.7836 5.22344 19.5853 5.23547 19.9244 5.57562C20.2634 5.91578 20.2766 6.71203 20.2875 7.48203C20.2984 8.22031 20.3105 8.98266 20.5861 9.64984C20.8737 10.3444 21.4163 10.9098 21.9402 11.4567C22.4641 12.0036 23 12.5625 23 13C23 13.4375 22.4619 14.0008 21.9402 14.5433ZM13.8125 18.6875C13.8125 18.9471 13.7355 19.2008 13.5913 19.4167C13.4471 19.6325 13.2421 19.8008 13.0023 19.9001C12.7624 19.9994 12.4985 20.0254 12.2439 19.9748C11.9893 19.9241 11.7555 19.7991 11.5719 19.6156C11.3884 19.432 11.2634 19.1982 11.2127 18.9436C11.1621 18.689 11.1881 18.4251 11.2874 18.1852C11.3867 17.9454 11.555 17.7404 11.7708 17.5962C11.9867 17.452 12.2404 17.375 12.5 17.375C12.8481 17.375 13.1819 17.5133 13.4281 17.7594C13.6742 18.0056 13.8125 18.3394 13.8125 18.6875ZM16.875 10.8125C16.875 12.7134 15.37 14.3048 13.375 14.6712V14.75C13.375 14.9821 13.2828 15.2046 13.1187 15.3687C12.9546 15.5328 12.7321 15.625 12.5 15.625C12.2679 15.625 12.0454 15.5328 11.8813 15.3687C11.7172 15.2046 11.625 14.9821 11.625 14.75V13.875C11.625 13.6429 11.7172 13.4204 11.8813 13.2563C12.0454 13.0922 12.2679 13 12.5 13C13.947 13 15.125 12.0156 15.125 10.8125C15.125 9.60938 13.947 8.625 12.5 8.625C11.053 8.625 9.875 9.60938 9.875 10.8125V11.25C9.875 11.4821 9.78281 11.7046 9.61872 11.8687C9.45462 12.0328 9.23206 12.125 9 12.125C8.76794 12.125 8.54538 12.0328 8.38128 11.8687C8.21719 11.7046 8.125 11.4821 8.125 11.25V10.8125C8.125 8.64141 10.0872 6.875 12.5 6.875C14.9128 6.875 16.875 8.64141 16.875 10.8125Z" fill="#566FE9"/>
</svg>
