<svg width="26" height="18" viewBox="0 0 26 18" fill="none" xmlns="http://www.w3.org/2000/svg">
<path d="M11.5065 12.8801L22.0065 2.38008C22.0878 2.29879 22.1844 2.2343 22.2906 2.1903C22.3968 2.14631 22.5106 2.12366 22.6256 2.12366C22.7406 2.12366 22.8544 2.14631 22.9606 2.1903C23.0669 2.2343 23.1634 2.29879 23.2447 2.38008C23.326 2.46138 23.3905 2.55789 23.4345 2.66411C23.4785 2.77033 23.5011 2.88418 23.5011 2.99915C23.5011 3.11412 23.4785 3.22796 23.4345 3.33418C23.3905 3.4404 23.326 3.53691 23.2447 3.61821L12.7447 14.1182C12.6634 14.1995 12.5669 14.264 12.4606 14.308C12.3544 14.352 12.2406 14.3746 12.1256 14.3746C12.0106 14.3746 11.8968 14.352 11.7906 14.308C11.6844 14.264 11.5878 14.1995 11.5065 14.1182C11.4253 14.0369 11.3608 13.9404 11.3168 13.8342C11.2728 13.728 11.2501 13.6141 11.2501 13.4991C11.2501 13.3842 11.2728 13.2703 11.3168 13.1641C11.3608 13.0579 11.4253 12.9614 11.5065 12.8801ZM13.0006 5.62415C13.7607 5.62318 14.5158 5.74621 15.2362 5.98837C15.3456 6.02715 15.4616 6.04378 15.5775 6.0373C15.6934 6.03081 15.8068 6.00135 15.9112 5.95061C16.0156 5.89987 16.1088 5.82887 16.1855 5.74175C16.2621 5.65463 16.3207 5.55313 16.3578 5.44315C16.3949 5.33317 16.4097 5.21692 16.4014 5.10116C16.3931 4.98541 16.3619 4.87245 16.3095 4.76888C16.2571 4.66531 16.1847 4.57319 16.0964 4.49788C16.0081 4.42258 15.9057 4.36559 15.7951 4.33024C14.4007 3.86015 12.9103 3.74932 11.4617 4.00799C10.0131 4.26666 8.65317 4.88649 7.50765 5.81012C6.36213 6.73376 5.46804 7.93137 4.90811 9.29218C4.34817 10.653 4.14046 12.133 4.30421 13.5954C4.32788 13.8093 4.42953 14.0069 4.58973 14.1506C4.74994 14.2942 4.95746 14.3738 5.17264 14.3741C5.20436 14.3741 5.23717 14.3741 5.26999 14.3687C5.50058 14.3431 5.71159 14.227 5.8566 14.0459C6.00161 13.8648 6.06875 13.6335 6.04327 13.4029C6.01479 13.1443 6.00055 12.8843 6.00061 12.6241C6.00264 10.7683 6.74079 8.98895 8.0531 7.67664C9.36542 6.36432 11.1447 5.62617 13.0006 5.62415ZM23.9097 7.04602C23.8573 6.94376 23.7852 6.85282 23.6976 6.7784C23.6101 6.70398 23.5087 6.64753 23.3993 6.61229C23.2899 6.57705 23.1747 6.5637 23.0601 6.573C22.9456 6.58229 22.834 6.61406 22.7317 6.66649C22.6294 6.71892 22.5385 6.79097 22.4641 6.87854C22.3897 6.96612 22.3332 7.06749 22.298 7.17687C22.2627 7.28626 22.2494 7.40151 22.2587 7.51606C22.268 7.6306 22.2997 7.74219 22.3522 7.84446C22.9995 9.1157 23.3818 10.5052 23.4758 11.9287C23.5698 13.3522 23.3736 14.7799 22.899 16.1252L3.09124 16.1176C2.53859 14.5334 2.37263 12.8401 2.60718 11.1788C2.84173 9.5175 3.47 7.93632 4.43962 6.56708C5.40924 5.19784 6.69211 4.08022 8.18129 3.30737C9.67048 2.53452 11.3228 2.12884 13.0006 2.12415H13.0969C14.7265 2.13439 16.3308 2.5278 17.7803 3.27258C17.8828 3.32902 17.9957 3.36431 18.1121 3.37636C18.2285 3.38841 18.3462 3.37698 18.4581 3.34274C18.5701 3.30851 18.674 3.25216 18.7638 3.17704C18.8535 3.10192 18.9273 3.00955 18.9807 2.9054C19.0342 2.80125 19.0661 2.68745 19.0748 2.57071C19.0835 2.45398 19.0686 2.3367 19.0311 2.22582C18.9936 2.11493 18.9343 2.01269 18.8566 1.92515C18.7789 1.83761 18.6844 1.76655 18.5787 1.71618C16.3967 0.598501 13.9294 0.161285 11.4962 0.461086C9.06289 0.760887 6.77556 1.78391 4.93004 3.39783C3.08453 5.01174 1.76573 7.14229 1.14426 9.51387C0.522781 11.8855 0.627214 14.389 1.44405 16.7006C1.56471 17.043 1.78848 17.3397 2.08461 17.5499C2.38074 17.76 2.73468 17.8733 3.0978 17.8741H22.9023C23.2653 17.8744 23.6193 17.7617 23.9154 17.5519C24.2115 17.342 24.435 17.0453 24.555 16.7027C25.1069 15.1331 25.3342 13.4677 25.2233 11.8076C25.1124 10.1475 24.6655 8.52719 23.9097 7.04493V7.04602Z" fill="#566FE9"/>
</svg>
