<svg width="176" height="42" viewBox="0 0 176 42" fill="none" xmlns="http://www.w3.org/2000/svg">
<path d="M5.09663 24.6231C3.96127 24.0067 3.54061 22.5866 4.15706 21.4512L4.71515 20.4233L14.3571 25.6585C14.5463 25.7612 14.6165 25.9979 14.5137 26.1871L13.7696 27.5576C13.3586 28.3145 12.4119 28.595 11.655 28.184L5.09663 24.6231Z" fill="#000042"/>
<path d="M37.543 17.1302C38.673 17.7565 39.0812 19.1803 38.4549 20.3102L37.8879 21.3332L27.8251 15.7553C27.6368 15.6509 27.5687 15.4136 27.6731 15.2253L28.4292 13.8613C28.8467 13.108 29.7959 12.8359 30.5492 13.2534L37.543 17.1302Z" fill="#000042"/>
<path d="M15.766 38.3375C14.6306 37.721 14.21 36.3009 14.8264 35.1655L15.3845 34.1377L24.814 39.2575C25.0033 39.3602 25.0734 39.5969 24.9706 39.7861L24.2265 41.1566C23.8155 41.9135 22.8688 42.194 22.1119 41.783L15.766 38.3375Z" fill="#000042"/>
<path d="M18.0343 0.28392C19.1697 -0.332529 20.5898 0.0881293 21.2062 1.22349L21.7643 2.25136L4.97871 11.3652L4.04855 9.65208C3.63759 8.89518 3.91803 7.94843 4.67493 7.53746L18.0343 0.28392Z" fill="#000042"/>
<path d="M37.5055 34.3298C38.6409 33.7133 39.0615 32.2932 38.4451 31.1578L37.887 30.13L20.6825 39.4712L21.6127 41.1843C22.0236 41.9412 22.9704 42.2217 23.7273 41.8107L37.5055 34.3298Z" fill="#000042"/>
<path d="M27.1904 28.9806C28.3257 28.3641 28.7464 26.944 28.1299 25.8086L27.5718 24.7808L15.8354 31.1531C14.7 31.7696 14.2794 33.1897 14.8958 34.3251L15.4539 35.3529L27.1904 28.9806Z" fill="#000042"/>
<path d="M26.7928 10.5451C27.9282 9.92868 28.3488 8.50856 27.7324 7.3732L27.1743 6.34533L15.0444 12.9313C14.2875 13.3423 14.0071 14.289 14.4181 15.0459L15.3482 16.759L26.7928 10.5451Z" fill="#000042"/>
<path d="M26.8232 3.95063C27.9541 4.57524 28.3645 5.99835 27.7399 7.12924L27.1744 8.15307L17.3866 2.74713L18.3291 1.04074C18.7455 0.286816 19.6942 0.0131985 20.4481 0.429602L26.8232 3.95063Z" fill="#000042"/>
<path d="M27.5656 26.3428L28.1311 25.319C28.7557 24.1881 28.3453 22.7649 27.2144 22.1403L15.4067 15.6188L14.4642 17.3252C14.0478 18.0791 14.3214 19.0279 15.0754 19.4443L27.5656 26.3428Z" fill="#000042"/>
<path d="M3.82062 9.40184C3.82062 8.10992 4.86792 7.06262 6.15984 7.06262H7.32945V24.8017H6.15984C4.86792 24.8017 3.82062 23.7544 3.82062 22.4625V9.40184Z" fill="#000042"/>
<path d="M28.038 6.06698C28.038 4.77506 26.9907 3.72775 25.6988 3.72775H24.5292V10.7454H25.6988C26.9907 10.7454 28.038 9.69811 28.038 8.4062V6.06698Z" fill="#000042"/>
<path d="M28.4279 24.2934C28.4279 23.0015 27.3806 21.9542 26.0887 21.9542H24.919V29.2643H26.0887C27.3806 29.2643 28.4279 28.217 28.4279 26.925V24.2934Z" fill="#000042"/>
<path d="M38.7378 19.2252C38.7378 17.9333 37.6905 16.886 36.3986 16.886H35.229V34.5764H36.3986C37.6905 34.5764 38.7378 33.5291 38.7378 32.2371V19.2252Z" fill="#000042"/>
<path d="M14.4684 33.2605C14.4684 31.9686 15.5157 30.9213 16.8076 30.9213H17.9772V38.5725H16.8076C15.5157 38.5725 14.4684 37.5252 14.4684 36.2333V33.2605Z" fill="#000042"/>
<path d="M14.1976 14.4492C14.1976 13.5879 14.8958 12.8897 15.7571 12.8897H17.7064V19.615H15.7571C14.8958 19.615 14.1976 18.9168 14.1976 18.0555V14.4492Z" fill="#000042"/>
<path d="M49.2865 24.9258H52.644C52.644 26.013 53.145 26.951 54.1469 27.7398C55.1702 28.5285 56.4812 28.9229 58.08 28.9229C59.8281 28.9229 61.1178 28.6244 61.9492 28.0276C62.7806 27.4093 63.1963 26.5886 63.1963 25.5654C63.1963 23.9239 61.9172 22.858 59.3591 22.3677L55.0423 21.5683C53.2942 21.2485 51.9725 20.577 51.0772 19.5538C50.2032 18.5305 49.7662 17.2302 49.7662 15.6526C49.7662 13.7767 50.491 12.2205 51.9406 10.9841C53.3902 9.72633 55.3301 9.09746 57.7603 9.09746C60.4463 9.09746 62.5248 9.77962 63.9957 11.144C65.4879 12.487 66.2341 14.203 66.2341 16.2922H62.8765C62.8765 15.205 62.4075 14.267 61.4696 13.4782C60.5316 12.6895 59.2952 12.2951 57.7603 12.2951C56.3107 12.2951 55.1702 12.6255 54.3388 13.2864C53.5287 13.9259 53.1237 14.7147 53.1237 15.6526C53.1237 17.2302 54.2429 18.2427 56.4812 18.6904L59.9986 19.3299C62.2583 19.735 63.9104 20.4385 64.955 21.4404C66.0209 22.421 66.5538 23.796 66.5538 25.5654C66.5538 27.484 65.8184 29.0615 64.3474 30.2979C62.8765 31.513 60.7874 32.1205 58.08 32.1205C55.3727 32.1205 53.2303 31.4384 51.6528 30.074C50.0753 28.7097 49.2865 26.9936 49.2865 24.9258ZM69.5916 31.8008V9.41722H72.7892V17.4114H72.9491C73.3115 17.049 73.7059 16.7292 74.1323 16.4521C75.1555 15.8125 76.3067 15.4928 77.5857 15.4928C79.5256 15.4928 81.0712 16.1003 82.2223 17.3154C83.3948 18.5092 83.981 20.14 83.981 22.2078V31.8008H80.7834V22.2078C80.7834 21.1633 80.4103 20.2679 79.6642 19.5218C78.9394 18.7544 78.0334 18.3706 76.9462 18.3706C75.7737 18.3706 74.7824 18.7544 73.9724 19.5218C73.1836 20.2679 72.7892 21.1633 72.7892 22.2078V31.8008H69.5916ZM91.0823 27.7717C91.999 28.7524 93.1501 29.2427 94.5358 29.2427C95.9214 29.2427 97.0619 28.7524 97.9573 27.7717C98.8739 26.7698 99.3322 25.4481 99.3322 23.8067C99.3322 22.1652 98.8739 20.8542 97.9573 19.8735C97.0619 18.8716 95.9214 18.3706 94.5358 18.3706C93.1501 18.3706 91.999 18.8716 91.0823 19.8735C90.187 20.8542 89.7393 22.1652 89.7393 23.8067C89.7393 25.4481 90.187 26.7698 91.0823 27.7717ZM100.26 29.8182C98.7673 31.3531 96.8594 32.1205 94.5358 32.1205C92.2121 32.1205 90.2935 31.3531 88.78 29.8182C87.2878 28.2834 86.5416 26.2795 86.5416 23.8067C86.5416 21.3338 87.2878 19.3299 88.78 17.7951C90.2935 16.2602 92.2121 15.4928 94.5358 15.4928C96.8594 15.4928 98.7673 16.2602 100.26 17.7951C101.773 19.3299 102.53 21.3338 102.53 23.8067C102.53 26.2795 101.773 28.2834 100.26 29.8182ZM117.242 31.8008L116.922 29.8822H116.762C115.632 31.3744 113.98 32.1205 111.806 32.1205C109.674 32.1205 107.915 31.3638 106.529 29.8502C105.144 28.3367 104.451 26.3221 104.451 23.8067C104.451 21.2912 105.144 19.2766 106.529 17.7631C107.915 16.2495 109.674 15.4928 111.806 15.4928C112.744 15.4928 113.596 15.6633 114.364 16.0044C115.152 16.3241 115.664 16.6013 115.899 16.8358C116.133 17.049 116.421 17.3474 116.762 17.7311H116.922V9.41722H120.119V31.8008H117.242ZM108.96 27.7398C109.855 28.7417 110.964 29.2427 112.285 29.2427C113.607 29.2427 114.705 28.7417 115.579 27.7398C116.474 26.7378 116.922 25.4268 116.922 23.8067C116.922 22.1865 116.474 20.8755 115.579 19.8735C114.705 18.8716 113.607 18.3706 112.285 18.3706C110.964 18.3706 109.855 18.8716 108.96 19.8735C108.086 20.8755 107.649 22.1865 107.649 23.8067C107.649 25.4268 108.086 26.7378 108.96 27.7398ZM123.944 31.8008V9.41722H127.142V17.4114H127.302C127.664 17.049 128.058 16.7292 128.485 16.4521C129.508 15.8125 130.659 15.4928 131.938 15.4928C133.878 15.4928 135.424 16.1003 136.575 17.3154C137.747 18.5092 138.334 20.14 138.334 22.2078V31.8008H135.136V22.2078C135.136 21.1633 134.763 20.2679 134.017 19.5218C133.292 18.7544 132.386 18.3706 131.299 18.3706C130.126 18.3706 129.135 18.7544 128.325 19.5218C127.536 20.2679 127.142 21.1633 127.142 22.2078V31.8008H123.944ZM146.501 31.8008L154.655 9.41722H159.772L167.926 31.8008H164.248L162.33 26.5247H152.097L150.179 31.8008H146.501ZM153.216 23.4869H161.211L157.533 13.2544H156.894L153.216 23.4869ZM169.682 31.8008V9.41722H173.039V31.8008H169.682Z" fill="#000042"/>
</svg>
