<svg width="14" height="13" viewBox="0 0 14 13" fill="none" xmlns="http://www.w3.org/2000/svg">
<path opacity="0.2" d="M13.3163 5.29941L10.2725 7.92441L11.2025 11.8488C11.2271 11.9496 11.2213 12.0555 11.1857 12.153C11.1501 12.2506 11.0864 12.3353 11.0027 12.3967C10.9189 12.458 10.8189 12.4931 10.7152 12.4976C10.6115 12.5021 10.5088 12.4758 10.42 12.4219L7.00003 10.3182L3.58003 12.4213C3.4913 12.4752 3.38859 12.5015 3.28488 12.497C3.18117 12.4925 3.08112 12.4574 2.99738 12.3961C2.91363 12.3347 2.84995 12.2499 2.81438 12.1524C2.77881 12.0549 2.77295 11.949 2.79753 11.8482L3.72753 7.92379L0.683784 5.29879C0.606179 5.23064 0.550229 5.14127 0.52284 5.04169C0.495451 4.94211 0.497822 4.83669 0.529662 4.73845C0.561502 4.64021 0.621416 4.55344 0.702007 4.48885C0.782597 4.42427 0.880337 4.3847 0.983159 4.37504L4.97753 4.05004L6.51628 0.325036C6.55551 0.228935 6.62247 0.146695 6.70863 0.0888058C6.79479 0.0309162 6.89623 0 7.00003 0C7.10383 0 7.20528 0.0309162 7.29144 0.0888058C7.37759 0.146695 7.44456 0.228935 7.48378 0.325036L9.02253 4.05004L13.0169 4.37504C13.1199 4.38459 13.2178 4.42412 13.2985 4.48874C13.3792 4.55337 13.4392 4.64024 13.4711 4.73861C13.5029 4.83698 13.5053 4.94254 13.4777 5.04221C13.4502 5.14189 13.3941 5.23131 13.3163 5.29941Z" fill="#566FE9"/>
</svg>
