<svg width="28" height="28" viewBox="0 0 28 28" fill="none" xmlns="http://www.w3.org/2000/svg">
<path d="M26.1605 10.6377C26.0511 10.3014 25.8446 10.005 25.5671 9.7858C25.2895 9.56664 24.9533 9.43452 24.6008 9.4061L18.1477 8.88547L15.6561 2.86C15.5214 2.53168 15.2921 2.25084 14.9973 2.05319C14.7025 1.85553 14.3556 1.75 14.0007 1.75C13.6458 1.75 13.299 1.85553 13.0042 2.05319C12.7094 2.25084 12.4801 2.53168 12.3454 2.86L9.85598 8.88438L3.39957 9.4061C3.04648 9.43596 2.71006 9.56936 2.43245 9.78957C2.15484 10.0098 1.94839 10.307 1.83896 10.6441C1.72954 10.9811 1.72201 11.3429 1.81731 11.6842C1.91262 12.0255 2.10652 12.3311 2.37473 12.5627L7.2966 16.8097L5.79707 23.16C5.71321 23.505 5.73374 23.8671 5.85607 24.2004C5.97839 24.5338 6.19699 24.8232 6.48412 25.032C6.77125 25.2409 7.11395 25.3597 7.46873 25.3734C7.82351 25.3871 8.17437 25.2951 8.47676 25.1091L14.0002 21.7097L19.5269 25.1091C19.8294 25.2929 20.1796 25.3832 20.5332 25.3684C20.8869 25.3537 21.2283 25.2346 21.5145 25.0262C21.8006 24.8178 22.0187 24.5294 22.1413 24.1973C22.2639 23.8653 22.2855 23.5043 22.2033 23.16L20.6983 16.8086L25.6202 12.5616C25.8906 12.3304 26.0862 12.0241 26.1824 11.6816C26.2786 11.3391 26.271 10.9758 26.1605 10.6377ZM24.4827 11.2359L19.1561 15.8297C19.0347 15.9344 18.9443 16.0705 18.8949 16.223C18.8455 16.3756 18.839 16.5388 18.8761 16.6948L20.5036 23.5636C20.5078 23.5731 20.5083 23.5838 20.5048 23.5936C20.5013 23.6033 20.4943 23.6114 20.485 23.6161C20.4654 23.6314 20.4599 23.6281 20.4435 23.6161L14.4585 19.9356C14.3206 19.8509 14.162 19.806 14.0002 19.806C13.8384 19.806 13.6798 19.8509 13.5419 19.9356L7.55691 23.6183C7.54051 23.6281 7.53613 23.6314 7.51535 23.6183C7.50612 23.6136 7.49905 23.6055 7.49559 23.5957C7.49213 23.586 7.49255 23.5753 7.49676 23.5658L9.12426 16.697C9.16135 16.541 9.15485 16.3778 9.10547 16.2252C9.05609 16.0727 8.96573 15.9366 8.84426 15.8319L3.5177 11.2381C3.50457 11.2272 3.49254 11.2173 3.50348 11.1834C3.51441 11.1495 3.52316 11.1539 3.53957 11.1517L10.5308 10.5873C10.6912 10.5736 10.8446 10.5159 10.9743 10.4206C11.104 10.3252 11.2048 10.196 11.2658 10.047L13.9586 3.52719C13.9674 3.5086 13.9707 3.49985 13.9969 3.49985C14.0232 3.49985 14.0264 3.5086 14.0352 3.52719L16.7346 10.047C16.7961 10.196 16.8976 10.3251 17.0279 10.4201C17.1582 10.5151 17.3122 10.5722 17.4729 10.5852L24.4641 11.1495C24.4805 11.1495 24.4904 11.1495 24.5002 11.1813C24.51 11.213 24.5002 11.225 24.4827 11.2359Z" fill="#566FE9"/>
</svg>
