<svg width="41" height="40" viewBox="0 0 41 40" fill="none" xmlns="http://www.w3.org/2000/svg">
<path d="M33 6.25H8C7.00544 6.25 6.05161 6.64509 5.34835 7.34835C4.64509 8.05161 4.25 9.00544 4.25 10V27.5C4.25 28.4946 4.64509 29.4484 5.34835 30.1517C6.05161 30.8549 7.00544 31.25 8 31.25H33C33.9946 31.25 34.9484 30.8549 35.6517 30.1517C36.3549 29.4484 36.75 28.4946 36.75 27.5V10C36.75 9.00544 36.3549 8.05161 35.6517 7.34835C34.9484 6.64509 33.9946 6.25 33 6.25ZM34.25 27.5C34.25 27.8315 34.1183 28.1495 33.8839 28.3839C33.6495 28.6183 33.3315 28.75 33 28.75H8C7.66848 28.75 7.35054 28.6183 7.11612 28.3839C6.8817 28.1495 6.75 27.8315 6.75 27.5V10C6.75 9.66848 6.8817 9.35054 7.11612 9.11612C7.35054 8.8817 7.66848 8.75 8 8.75H33C33.3315 8.75 33.6495 8.8817 33.8839 9.11612C34.1183 9.35054 34.25 9.66848 34.25 10V27.5ZM26.75 35C26.75 35.3315 26.6183 35.6495 26.3839 35.8839C26.1495 36.1183 25.8315 36.25 25.5 36.25H15.5C15.1685 36.25 14.8505 36.1183 14.6161 35.8839C14.3817 35.6495 14.25 35.3315 14.25 35C14.25 34.6685 14.3817 34.3505 14.6161 34.1161C14.8505 33.8817 15.1685 33.75 15.5 33.75H25.5C25.8315 33.75 26.1495 33.8817 26.3839 34.1161C26.6183 34.3505 26.75 34.6685 26.75 35ZM25.1344 16.6156C25.2505 16.7318 25.3426 16.8696 25.4055 17.0214C25.4683 17.1731 25.5007 17.3358 25.5007 17.5C25.5007 17.6642 25.4683 17.8269 25.4055 17.9786C25.3426 18.1304 25.2505 18.2682 25.1344 18.3844C25.0182 18.5005 24.8804 18.5926 24.7286 18.6555C24.5769 18.7183 24.4142 18.7507 24.25 18.7507C24.0858 18.7507 23.9231 18.7183 23.7714 18.6555C23.6196 18.5926 23.4818 18.5005 23.3656 18.3844L21.75 16.7672V23.75C21.75 24.0815 21.6183 24.3995 21.3839 24.6339C21.1495 24.8683 20.8315 25 20.5 25C20.1685 25 19.8505 24.8683 19.6161 24.6339C19.3817 24.3995 19.25 24.0815 19.25 23.75V16.7672L17.6344 18.3844C17.3998 18.6189 17.0817 18.7507 16.75 18.7507C16.4183 18.7507 16.1002 18.6189 15.8656 18.3844C15.6311 18.1498 15.4993 17.8317 15.4993 17.5C15.4993 17.1683 15.6311 16.8502 15.8656 16.6156L19.6156 12.8656C19.7317 12.7494 19.8696 12.6572 20.0213 12.5943C20.1731 12.5314 20.3357 12.499 20.5 12.499C20.6643 12.499 20.8269 12.5314 20.9787 12.5943C21.1304 12.6572 21.2683 12.7494 21.3844 12.8656L25.1344 16.6156Z" fill="#566FE9"/>
</svg>
