<svg width="22" height="22" viewBox="0 0 22 22" fill="none" xmlns="http://www.w3.org/2000/svg">
<path d="M21.3113 0.688999C21.1227 0.500498 20.8872 0.365688 20.6292 0.298456C20.3711 0.231224 20.0998 0.234 19.8432 0.306499H19.8291L1.83473 5.7665C1.5426 5.85069 1.28295 6.02166 1.09019 6.25676C0.897424 6.49185 0.780647 6.77997 0.755332 7.08294C0.730017 7.3859 0.79736 7.6894 0.948436 7.95323C1.09951 8.21705 1.32719 8.42874 1.6013 8.56025L9.56255 12.4377L13.4344 20.3943C13.5548 20.6513 13.7463 20.8685 13.9862 21.0201C14.2261 21.1718 14.5044 21.2517 14.7882 21.2502C14.8313 21.2502 14.8744 21.2484 14.9175 21.2446C15.2203 21.2201 15.5082 21.1036 15.7429 20.9107C15.9775 20.7178 16.1475 20.4578 16.23 20.1656L21.6863 2.17119C21.6863 2.1665 21.6863 2.16181 21.6863 2.15712C21.7597 1.90115 21.7637 1.63024 21.6978 1.37223C21.6319 1.11421 21.4985 0.878396 21.3113 0.688999ZM14.7966 19.7362L14.7919 19.7493V19.7427L11.0363 12.0271L15.5363 7.52712C15.671 7.38533 15.745 7.19651 15.7425 7.00094C15.74 6.80537 15.6612 6.61852 15.5229 6.48022C15.3846 6.34191 15.1977 6.26311 15.0022 6.26061C14.8066 6.2581 14.6178 6.3321 14.476 6.46681L9.97598 10.9668L2.25755 7.21119H2.25098H2.26411L20.25 1.75025L14.7966 19.7362Z" fill="#566FE9"/>
</svg>
