<svg width="27" height="22" viewBox="0 0 27 22" fill="none" xmlns="http://www.w3.org/2000/svg">
<path d="M26.2508 10.9328C26.2497 9.77379 25.9203 8.63879 25.3009 7.65917C24.6815 6.67955 23.7974 5.89535 22.7508 5.39733V5.2453C22.7498 4.11788 22.3859 3.02074 21.7129 2.11621C21.04 1.21167 20.0937 0.547803 19.0141 0.22283C17.9345 -0.102144 16.779 -0.0709591 15.7186 0.311771C14.6581 0.6945 13.749 1.40844 13.1258 2.34796C12.5026 1.40844 11.5935 0.6945 10.5331 0.311771C9.47259 -0.0709591 8.31709 -0.102144 7.23752 0.22283C6.15796 0.547803 5.21168 1.21167 4.53871 2.11621C3.86574 3.02074 3.50183 4.11788 3.50082 5.2453V5.39733C2.45338 5.89399 1.56838 6.67769 0.948673 7.65737C0.328967 8.63705 0 9.77248 0 10.9317C0 12.0909 0.328967 13.2264 0.948673 14.206C1.56838 15.1857 2.45338 15.9694 3.50082 16.4661V16.6203C3.50183 17.7477 3.86574 18.8449 4.53871 19.7494C5.21168 20.6539 6.15796 21.3178 7.23752 21.6428C8.31709 21.9677 9.47259 21.9366 10.5331 21.5538C11.5935 21.1711 12.5026 20.4572 13.1258 19.5176C13.749 20.4572 14.6581 21.1711 15.7186 21.5538C16.779 21.9366 17.9345 21.9677 19.0141 21.6428C20.0937 21.3178 21.04 20.6539 21.7129 19.7494C22.3859 18.8449 22.7498 17.7477 22.7508 16.6203V16.4661C23.7972 15.9684 24.6813 15.1846 25.3007 14.2054C25.9201 13.2261 26.2495 12.0915 26.2508 10.9328ZM8.75082 20.1203C7.88779 20.1202 7.05524 19.8012 6.41307 19.2246C5.77089 18.6481 5.36438 17.8546 5.2716 16.9966C5.55456 17.0369 5.84 17.0574 6.12582 17.0578H7.00082C7.23288 17.0578 7.45544 16.9656 7.61954 16.8015C7.78363 16.6374 7.87582 16.4149 7.87582 16.1828C7.87582 15.9507 7.78363 15.7282 7.61954 15.5641C7.45544 15.4 7.23288 15.3078 7.00082 15.3078H6.12582C5.09284 15.309 4.09275 14.9447 3.30261 14.2793C2.51247 13.6139 1.98325 12.6904 1.80866 11.6723C1.63406 10.6542 1.82534 9.6071 2.34864 8.71648C2.87193 7.82585 3.69349 7.14912 4.66785 6.80608C4.83834 6.74572 4.98593 6.63402 5.09033 6.48633C5.19472 6.33865 5.25079 6.16225 5.25082 5.98139V5.2453C5.25082 4.31704 5.61957 3.4268 6.27595 2.77043C6.93232 2.11405 7.82256 1.7453 8.75082 1.7453C9.67908 1.7453 10.5693 2.11405 11.2257 2.77043C11.8821 3.4268 12.2508 4.31704 12.2508 5.2453V12.7112C11.29 11.8471 10.0431 11.3693 8.75082 11.3703C8.51875 11.3703 8.2962 11.4625 8.1321 11.6266C7.96801 11.7907 7.87582 12.0132 7.87582 12.2453C7.87582 12.4774 7.96801 12.6999 8.1321 12.864C8.2962 13.0281 8.51875 13.1203 8.75082 13.1203C9.67908 13.1203 10.5693 13.489 11.2257 14.1454C11.8821 14.8018 12.2508 15.692 12.2508 16.6203C12.2508 17.5486 11.8821 18.4388 11.2257 19.0952C10.5693 19.7516 9.67908 20.1203 8.75082 20.1203ZM20.1258 15.3078H19.2508C19.0188 15.3078 18.7962 15.4 18.6321 15.5641C18.468 15.7282 18.3758 15.9507 18.3758 16.1828C18.3758 16.4149 18.468 16.6374 18.6321 16.8015C18.7962 16.9656 19.0188 17.0578 19.2508 17.0578H20.1258C20.4116 17.0574 20.6971 17.0369 20.98 16.9966C20.9073 17.6688 20.6415 18.3057 20.2145 18.8301C19.7876 19.3545 19.2179 19.744 18.5743 19.9515C17.9307 20.1589 17.2408 20.1756 16.588 19.9993C15.9351 19.823 15.3473 19.4614 14.8956 18.9582C14.444 18.455 14.1477 17.8317 14.0428 17.1636C13.9378 16.4956 14.0286 15.8115 14.3041 15.194C14.5797 14.5765 15.0282 14.052 15.5955 13.684C16.1628 13.316 16.8246 13.1202 17.5008 13.1203C17.7329 13.1203 17.9554 13.0281 18.1195 12.864C18.2836 12.6999 18.3758 12.4774 18.3758 12.2453C18.3758 12.0132 18.2836 11.7907 18.1195 11.6266C17.9554 11.4625 17.7329 11.3703 17.5008 11.3703C16.2085 11.3693 14.9617 11.8471 14.0008 12.7112V5.2453C14.0008 4.31704 14.3696 3.4268 15.0259 2.77043C15.6823 2.11405 16.5726 1.7453 17.5008 1.7453C18.4291 1.7453 19.3193 2.11405 19.9757 2.77043C20.6321 3.4268 21.0008 4.31704 21.0008 5.2453V5.98139C21.0008 6.16225 21.0569 6.33865 21.1613 6.48633C21.2657 6.63402 21.4133 6.74572 21.5838 6.80608C22.5581 7.14912 23.3797 7.82585 23.903 8.71648C24.4263 9.6071 24.6176 10.6542 24.443 11.6723C24.2684 12.6904 23.7392 13.6139 22.949 14.2793C22.1589 14.9447 21.1588 15.309 20.1258 15.3078ZM21.8758 9.6203C21.8758 9.85236 21.7836 10.0749 21.6195 10.239C21.4554 10.4031 21.2329 10.4953 21.0008 10.4953H20.5633C19.519 10.4953 18.5175 10.0805 17.7791 9.34203C17.0407 8.60361 16.6258 7.60209 16.6258 6.5578V6.1203C16.6258 5.88824 16.718 5.66568 16.8821 5.50158C17.0462 5.33749 17.2688 5.2453 17.5008 5.2453C17.7329 5.2453 17.9554 5.33749 18.1195 5.50158C18.2836 5.66568 18.3758 5.88824 18.3758 6.1203V6.5578C18.3758 7.13796 18.6063 7.69436 19.0165 8.1046C19.4268 8.51483 19.9832 8.7453 20.5633 8.7453H21.0008C21.2329 8.7453 21.4554 8.83749 21.6195 9.00158C21.7836 9.16568 21.8758 9.38824 21.8758 9.6203ZM5.68832 10.4953H5.25082C5.01876 10.4953 4.7962 10.4031 4.6321 10.239C4.46801 10.0749 4.37582 9.85236 4.37582 9.6203C4.37582 9.38824 4.46801 9.16568 4.6321 9.00158C4.7962 8.83749 5.01876 8.7453 5.25082 8.7453H5.68832C6.26848 8.7453 6.82488 8.51483 7.23512 8.1046C7.64535 7.69436 7.87582 7.13796 7.87582 6.5578V6.1203C7.87582 5.88824 7.96801 5.66568 8.1321 5.50158C8.2962 5.33749 8.51875 5.2453 8.75082 5.2453C8.98288 5.2453 9.20544 5.33749 9.36954 5.50158C9.53363 5.66568 9.62582 5.88824 9.62582 6.1203V6.5578C9.62582 7.60209 9.21098 8.60361 8.47255 9.34203C7.73413 10.0805 6.73261 10.4953 5.68832 10.4953Z" fill="#566FE9"/>
</svg>
