<svg width="24" height="24" viewBox="0 0 24 24" fill="none" xmlns="http://www.w3.org/2000/svg">
<path d="M23.375 12.9463C23.1891 15.1075 22.3898 17.1706 21.0712 18.893C19.7525 20.6154 17.9694 21.9254 15.9315 22.6688C13.8937 23.4122 11.6859 23.5581 9.56797 23.0894C7.45002 22.6206 5.50999 21.5568 3.97613 20.0229C2.44227 18.4891 1.3784 16.549 0.909671 14.4311C0.440944 12.3131 0.586864 10.1053 1.33026 8.06751C2.07366 6.02967 3.38362 4.24653 5.10601 2.92789C6.8284 1.60925 8.89157 0.809967 11.0528 0.624067C11.1677 0.614587 11.2833 0.627832 11.3931 0.663047C11.5029 0.698262 11.6047 0.754756 11.6927 0.829304C11.7806 0.903852 11.853 0.994994 11.9058 1.09753C11.9585 1.20006 11.9905 1.31197 12 1.42688C12.0095 1.54179 11.9962 1.65743 11.961 1.76722C11.9258 1.87701 11.8693 1.97879 11.7947 2.06674C11.7202 2.1547 11.6291 2.22711 11.5265 2.27984C11.424 2.33257 11.3121 2.36459 11.1972 2.37407C9.36797 2.53123 7.6217 3.20758 6.16385 4.32353C4.706 5.43948 3.5972 6.9486 2.96793 8.67333C2.33866 10.3981 2.21509 12.2666 2.61176 14.0592C3.00843 15.8518 3.90884 17.4938 5.20705 18.792C6.50526 20.0902 8.14725 20.9906 9.93983 21.3873C11.7324 21.784 13.601 21.6604 15.3257 21.0311C17.0504 20.4018 18.5596 19.2931 19.6755 17.8352C20.7915 16.3773 21.4678 14.6311 21.625 12.8019C21.6441 12.5698 21.7547 12.3549 21.9323 12.2043C22.1099 12.0537 22.3401 11.9799 22.5722 11.9991C22.8042 12.0182 23.0192 12.1288 23.1697 12.3064C23.3203 12.484 23.3941 12.7142 23.375 12.9463ZM11.125 5.87407V11.9991C11.125 12.2311 11.2172 12.4537 11.3813 12.6178C11.5454 12.7819 11.7679 12.8741 12 12.8741H18.125C18.357 12.8741 18.5796 12.7819 18.7437 12.6178C18.9078 12.4537 19 12.2311 19 11.9991C19 11.767 18.9078 11.5444 18.7437 11.3803C18.5796 11.2163 18.357 11.1241 18.125 11.1241H12.875V5.87407C12.875 5.642 12.7828 5.41944 12.6187 5.25535C12.4546 5.09125 12.232 4.99907 12 4.99907C11.7679 4.99907 11.5454 5.09125 11.3813 5.25535C11.2172 5.41944 11.125 5.642 11.125 5.87407ZM15.5 3.24907C15.7596 3.24907 16.0133 3.17209 16.2292 3.02787C16.445 2.88365 16.6132 2.67867 16.7126 2.43884C16.8119 2.19901 16.8379 1.93511 16.7873 1.68051C16.7366 1.42591 16.6116 1.19205 16.4281 1.00849C16.2445 0.824932 16.0106 0.699929 15.756 0.649286C15.5014 0.598643 15.2375 0.624635 14.9977 0.723975C14.7579 0.823315 14.5529 0.991541 14.4087 1.20738C14.2645 1.42322 14.1875 1.67698 14.1875 1.93657C14.1875 2.28466 14.3258 2.6185 14.5719 2.86464C14.818 3.11079 15.1519 3.24907 15.5 3.24907ZM19.4375 5.87407C19.6971 5.87407 19.9508 5.79709 20.1667 5.65287C20.3825 5.50865 20.5507 5.30367 20.6501 5.06384C20.7494 4.82401 20.7754 4.56011 20.7248 4.30551C20.6741 4.05091 20.5491 3.81705 20.3656 3.63349C20.182 3.44993 19.9481 3.32493 19.6935 3.27429C19.4389 3.22364 19.175 3.24963 18.9352 3.34897C18.6954 3.44831 18.4904 3.61654 18.3462 3.83238C18.202 4.04822 18.125 4.30198 18.125 4.56157C18.125 4.90966 18.2633 5.2435 18.5094 5.48964C18.7555 5.73579 19.0894 5.87407 19.4375 5.87407ZM22.0625 9.81157C22.3221 9.81157 22.5758 9.73459 22.7917 9.59037C23.0075 9.44615 23.1757 9.24117 23.2751 9.00134C23.3744 8.76151 23.4004 8.49761 23.3498 8.24301C23.2991 7.98841 23.1741 7.75455 22.9906 7.57099C22.807 7.38743 22.5731 7.26243 22.3185 7.21179C22.0639 7.16114 21.8 7.18713 21.5602 7.28647C21.3204 7.38581 21.1154 7.55404 20.9712 7.76988C20.827 7.98572 20.75 8.23948 20.75 8.49907C20.75 8.84716 20.8883 9.181 21.1344 9.42714C21.3805 9.67329 21.7144 9.81157 22.0625 9.81157Z" fill="#566FE9"/>
</svg>
