<svg width="28" height="28" viewBox="0 0 28 28" fill="none" xmlns="http://www.w3.org/2000/svg">
<path d="M25.375 14.9463C25.1891 17.1075 24.3898 19.1706 23.0712 20.893C21.7525 22.6154 19.9694 23.9254 17.9315 24.6688C15.8937 25.4122 13.6859 25.5581 11.568 25.0894C9.45002 24.6206 7.50999 23.5568 5.97613 22.0229C4.44227 20.4891 3.3784 18.549 2.90967 16.4311C2.44094 14.3131 2.58686 12.1053 3.33026 10.0675C4.07366 8.02967 5.38362 6.24653 7.10601 4.92789C8.8284 3.60925 10.8916 2.80997 13.0528 2.62407C13.1677 2.61459 13.2833 2.62783 13.3931 2.66305C13.5029 2.69826 13.6047 2.75476 13.6927 2.8293C13.7806 2.90385 13.853 2.99499 13.9058 3.09753C13.9585 3.20006 13.9905 3.31197 14 3.42688C14.0095 3.54179 13.9962 3.65743 13.961 3.76722C13.9258 3.87701 13.8693 3.97879 13.7947 4.06674C13.7202 4.1547 13.6291 4.22711 13.5265 4.27984C13.424 4.33257 13.3121 4.36459 13.1972 4.37407C11.368 4.53123 9.6217 5.20758 8.16385 6.32353C6.706 7.43948 5.5972 8.9486 4.96793 10.6733C4.33866 12.3981 4.21509 14.2666 4.61176 16.0592C5.00843 17.8518 5.90884 19.4938 7.20705 20.792C8.50526 22.0902 10.1472 22.9906 11.9398 23.3873C13.7324 23.784 15.601 23.6604 17.3257 23.0311C19.0504 22.4018 20.5596 21.2931 21.6755 19.8352C22.7915 18.3773 23.4678 16.6311 23.625 14.8019C23.6441 14.5698 23.7547 14.3549 23.9323 14.2043C24.1099 14.0537 24.3401 13.9799 24.5722 13.9991C24.8042 14.0182 25.0192 14.1288 25.1697 14.3064C25.3203 14.484 25.3941 14.7142 25.375 14.9463ZM13.125 7.87407V13.9991C13.125 14.2311 13.2172 14.4537 13.3813 14.6178C13.5454 14.7819 13.7679 14.8741 14 14.8741H20.125C20.357 14.8741 20.5796 14.7819 20.7437 14.6178C20.9078 14.4537 21 14.2311 21 13.9991C21 13.767 20.9078 13.5444 20.7437 13.3803C20.5796 13.2163 20.357 13.1241 20.125 13.1241H14.875V7.87407C14.875 7.642 14.7828 7.41944 14.6187 7.25535C14.4546 7.09125 14.232 6.99907 14 6.99907C13.7679 6.99907 13.5454 7.09125 13.3813 7.25535C13.2172 7.41944 13.125 7.642 13.125 7.87407ZM17.5 5.24907C17.7596 5.24907 18.0133 5.17209 18.2292 5.02787C18.445 4.88365 18.6132 4.67867 18.7126 4.43884C18.8119 4.19901 18.8379 3.93511 18.7873 3.68051C18.7366 3.42591 18.6116 3.19205 18.4281 3.00849C18.2445 2.82493 18.0106 2.69993 17.756 2.64929C17.5014 2.59864 17.2375 2.62463 16.9977 2.72397C16.7579 2.82331 16.5529 2.99154 16.4087 3.20738C16.2645 3.42322 16.1875 3.67698 16.1875 3.93657C16.1875 4.28466 16.3258 4.6185 16.5719 4.86464C16.818 5.11079 17.1519 5.24907 17.5 5.24907ZM21.4375 7.87407C21.6971 7.87407 21.9508 7.79709 22.1667 7.65287C22.3825 7.50865 22.5507 7.30367 22.6501 7.06384C22.7494 6.82401 22.7754 6.56011 22.7248 6.30551C22.6741 6.05091 22.5491 5.81705 22.3656 5.63349C22.182 5.44993 21.9481 5.32493 21.6935 5.27429C21.4389 5.22364 21.175 5.24963 20.9352 5.34897C20.6954 5.44831 20.4904 5.61654 20.3462 5.83238C20.202 6.04822 20.125 6.30198 20.125 6.56157C20.125 6.90966 20.2633 7.2435 20.5094 7.48964C20.7555 7.73579 21.0894 7.87407 21.4375 7.87407ZM24.0625 11.8116C24.3221 11.8116 24.5758 11.7346 24.7917 11.5904C25.0075 11.4462 25.1757 11.2412 25.2751 11.0013C25.3744 10.7615 25.4004 10.4976 25.3498 10.243C25.2991 9.98841 25.1741 9.75455 24.9906 9.57099C24.807 9.38743 24.5731 9.26243 24.3185 9.21179C24.0639 9.16114 23.8 9.18713 23.5602 9.28647C23.3204 9.38581 23.1154 9.55404 22.9712 9.76988C22.827 9.98572 22.75 10.2395 22.75 10.4991C22.75 10.8472 22.8883 11.181 23.1344 11.4271C23.3805 11.6733 23.7144 11.8116 24.0625 11.8116Z" fill="#566FE9"/>
</svg>
