<svg width="23" height="23" viewBox="0 0 23 23" fill="none" xmlns="http://www.w3.org/2000/svg">
<path d="M22.7344 12.3252C22.5485 14.4864 21.7492 16.5496 20.4305 18.2719C19.1119 19.9943 17.3288 21.3043 15.2909 22.0477C13.2531 22.7911 11.0453 22.937 8.92735 22.4683C6.80939 21.9996 4.86936 20.9357 3.33551 19.4018C1.80165 17.868 0.737774 15.9279 0.269046 13.81C-0.199681 11.692 -0.053761 9.48425 0.689639 7.44641C1.43304 5.40857 2.74299 3.62544 4.46538 2.3068C6.18777 0.988161 8.25095 0.188873 10.4122 0.00297275C10.5271 -0.00650705 10.6427 0.00673844 10.7525 0.0419531C10.8623 0.0771678 10.9641 0.133662 11.052 0.20821C11.14 0.282758 11.2124 0.3739 11.2651 0.476432C11.3179 0.578964 11.3499 0.690879 11.3594 0.805785C11.3688 0.920692 11.3556 1.03634 11.3204 1.14613C11.2852 1.25592 11.2287 1.35769 11.1541 1.44565C11.0796 1.5336 10.9884 1.60601 10.8859 1.65874C10.7834 1.71147 10.6714 1.74349 10.5565 1.75297C8.72734 1.91014 6.98108 2.58648 5.52322 3.70243C4.06537 4.81838 2.95658 6.3275 2.3273 8.05223C1.69803 9.77697 1.57446 11.6455 1.97114 13.4381C2.36781 15.2307 3.26822 16.8727 4.56643 18.1709C5.86463 19.4691 7.50662 20.3695 9.2992 20.7662C11.0918 21.1629 12.9604 21.0393 14.6851 20.41C16.4098 19.7808 17.9189 18.672 19.0349 17.2141C20.1508 15.7562 20.8272 14.01 20.9844 12.1808C21.0035 11.9487 21.114 11.7338 21.2917 11.5832C21.4693 11.4327 21.6995 11.3588 21.9315 11.378C22.1636 11.3971 22.3786 11.5077 22.5291 11.6853C22.6797 11.8629 22.7535 12.0931 22.7344 12.3252ZM10.4844 5.25297V11.378C10.4844 11.61 10.5765 11.8326 10.7406 11.9967C10.9047 12.1608 11.1273 12.253 11.3594 12.253H17.4844C17.7164 12.253 17.939 12.1608 18.1031 11.9967C18.2672 11.8326 18.3594 11.61 18.3594 11.378C18.3594 11.1459 18.2672 10.9233 18.1031 10.7593C17.939 10.5952 17.7164 10.503 17.4844 10.503H12.2344V5.25297C12.2344 5.02091 12.1422 4.79835 11.9781 4.63425C11.814 4.47016 11.5914 4.37797 11.3594 4.37797C11.1273 4.37797 10.9047 4.47016 10.7406 4.63425C10.5765 4.79835 10.4844 5.02091 10.4844 5.25297ZM14.8594 2.62797C15.1189 2.62797 15.3727 2.551 15.5885 2.40678C15.8044 2.26256 15.9726 2.05757 16.0719 1.81774C16.1713 1.57792 16.1973 1.31402 16.1466 1.05942C16.096 0.804817 15.971 0.570952 15.7874 0.387395C15.6039 0.203839 15.37 0.0788353 15.1154 0.0281922C14.8608 -0.0224509 14.5969 0.00354094 14.3571 0.102881C14.1173 0.202221 13.9123 0.370447 13.7681 0.586287C13.6238 0.802126 13.5469 1.05588 13.5469 1.31547C13.5469 1.66357 13.6851 1.99741 13.9313 2.24355C14.1774 2.48969 14.5113 2.62797 14.8594 2.62797ZM18.7969 5.25297C19.0564 5.25297 19.3102 5.176 19.526 5.03178C19.7419 4.88756 19.9101 4.68257 20.0094 4.44274C20.1088 4.20292 20.1348 3.93902 20.0841 3.68442C20.0335 3.42982 19.9085 3.19595 19.7249 3.01239C19.5414 2.82884 19.3075 2.70384 19.0529 2.65319C18.7983 2.60255 18.5344 2.62854 18.2946 2.72788C18.0548 2.82722 17.8498 2.99545 17.7056 3.21129C17.5613 3.42713 17.4844 3.68088 17.4844 3.94047C17.4844 4.28857 17.6226 4.62241 17.8688 4.86855C18.1149 5.11469 18.4488 5.25297 18.7969 5.25297ZM21.4219 9.19047C21.6814 9.19047 21.9352 9.1135 22.151 8.96928C22.3669 8.82506 22.5351 8.62007 22.6344 8.38024C22.7338 8.14042 22.7598 7.87652 22.7091 7.62192C22.6585 7.36732 22.5335 7.13345 22.3499 6.94989C22.1664 6.76634 21.9325 6.64134 21.6779 6.59069C21.4233 6.54005 21.1594 6.56604 20.9196 6.66538C20.6798 6.76472 20.4748 6.93295 20.3306 7.14879C20.1863 7.36463 20.1094 7.61838 20.1094 7.87797C20.1094 8.22607 20.2476 8.55991 20.4938 8.80605C20.7399 9.05219 21.0738 9.19047 21.4219 9.19047Z" fill="#566FE9"/>
</svg>
