<svg width="20" height="20" viewBox="0 0 20 20" fill="none" xmlns="http://www.w3.org/2000/svg">
<path d="M17.5 11.2505V16.2505C17.5 16.4163 17.4342 16.5752 17.3169 16.6924C17.1997 16.8096 17.0408 16.8755 16.875 16.8755H3.125C2.95924 16.8755 2.80027 16.8096 2.68306 16.6924C2.56585 16.5752 2.5 16.4163 2.5 16.2505V11.2505C2.5 11.0847 2.56585 10.9258 2.68306 10.8086C2.80027 10.6913 2.95924 10.6255 3.125 10.6255C3.29076 10.6255 3.44973 10.6913 3.56694 10.8086C3.68415 10.9258 3.75 11.0847 3.75 11.2505V15.6255H16.25V11.2505C16.25 11.0847 16.3158 10.9258 16.4331 10.8086C16.5503 10.6913 16.7092 10.6255 16.875 10.6255C17.0408 10.6255 17.1997 10.6913 17.3169 10.8086C17.4342 10.9258 17.5 11.0847 17.5 11.2505ZM7.31719 6.06768L9.375 4.00909V11.2505C9.375 11.4163 9.44085 11.5752 9.55806 11.6924C9.67527 11.8096 9.83424 11.8755 10 11.8755C10.1658 11.8755 10.3247 11.8096 10.4419 11.6924C10.5592 11.5752 10.625 11.4163 10.625 11.2505V4.00909L12.6828 6.06768C12.8001 6.18496 12.9591 6.25084 13.125 6.25084C13.2909 6.25084 13.4499 6.18496 13.5672 6.06768C13.6845 5.9504 13.7503 5.79134 13.7503 5.62549C13.7503 5.45964 13.6845 5.30058 13.5672 5.1833L10.4422 2.0583C10.3841 2.00019 10.3152 1.95409 10.2393 1.92264C10.1635 1.89119 10.0821 1.875 10 1.875C9.91787 1.875 9.83654 1.89119 9.76066 1.92264C9.68479 1.95409 9.61586 2.00019 9.55781 2.0583L6.43281 5.1833C6.31554 5.30058 6.24965 5.45964 6.24965 5.62549C6.24965 5.79134 6.31554 5.9504 6.43281 6.06768C6.55009 6.18496 6.70915 6.25084 6.875 6.25084C7.04085 6.25084 7.19991 6.18496 7.31719 6.06768Z" fill="#566FE9"/>
</svg>
