<svg width="41" height="40" viewBox="0 0 41 40" fill="none" xmlns="http://www.w3.org/2000/svg">
<path d="M33.8844 12.8656L25.1344 4.11563C25.0182 3.99958 24.8803 3.90756 24.7286 3.84483C24.5768 3.78209 24.4142 3.74987 24.25 3.75H9.25C8.58696 3.75 7.95107 4.01339 7.48223 4.48223C7.01339 4.95107 6.75 5.58696 6.75 6.25V33.75C6.75 34.413 7.01339 35.0489 7.48223 35.5178C7.95107 35.9866 8.58696 36.25 9.25 36.25H31.75C32.413 36.25 33.0489 35.9866 33.5178 35.5178C33.9866 35.0489 34.25 34.413 34.25 33.75V13.75C34.2501 13.5858 34.2179 13.4232 34.1552 13.2714C34.0924 13.1197 34.0004 12.9818 33.8844 12.8656ZM25.5 8.01719L29.9828 12.5H25.5V8.01719ZM31.75 33.75H9.25V6.25H23V13.75C23 14.0815 23.1317 14.3995 23.3661 14.6339C23.6005 14.8683 23.9185 15 24.25 15H31.75V33.75ZM25.1344 21.6156C25.2505 21.7318 25.3426 21.8696 25.4055 22.0214C25.4683 22.1731 25.5007 22.3358 25.5007 22.5C25.5007 22.6642 25.4683 22.8269 25.4055 22.9786C25.3426 23.1304 25.2505 23.2682 25.1344 23.3844C25.0182 23.5005 24.8804 23.5926 24.7286 23.6555C24.5769 23.7183 24.4142 23.7507 24.25 23.7507C24.0858 23.7507 23.9231 23.7183 23.7714 23.6555C23.6196 23.5926 23.4818 23.5005 23.3656 23.3844L21.75 21.7672V28.75C21.75 29.0815 21.6183 29.3995 21.3839 29.6339C21.1495 29.8683 20.8315 30 20.5 30C20.1685 30 19.8505 29.8683 19.6161 29.6339C19.3817 29.3995 19.25 29.0815 19.25 28.75V21.7672L17.6344 23.3844C17.5182 23.5005 17.3804 23.5926 17.2286 23.6555C17.0769 23.7183 16.9142 23.7507 16.75 23.7507C16.5858 23.7507 16.4231 23.7183 16.2714 23.6555C16.1196 23.5926 15.9818 23.5005 15.8656 23.3844C15.7495 23.2682 15.6574 23.1304 15.5945 22.9786C15.5317 22.8269 15.4993 22.6642 15.4993 22.5C15.4993 22.3358 15.5317 22.1731 15.5945 22.0214C15.6574 21.8696 15.7495 21.7318 15.8656 21.6156L19.6156 17.8656C19.7317 17.7494 19.8696 17.6572 20.0213 17.5943C20.1731 17.5314 20.3357 17.499 20.5 17.499C20.6643 17.499 20.8269 17.5314 20.9787 17.5943C21.1304 17.6572 21.2683 17.7494 21.3844 17.8656L25.1344 21.6156Z" fill="#566FE9"/>
</svg>
