<svg width="28" height="28" viewBox="0 0 28 28" fill="none" xmlns="http://www.w3.org/2000/svg">
<path d="M12.8245 17.2722C13.9972 16.4915 14.8875 15.3541 15.3638 14.0282C15.8401 12.7023 15.8771 11.2584 15.4693 9.90988C15.0614 8.56136 14.2305 7.37989 13.0992 6.54017C11.968 5.70045 10.5966 5.24707 9.18774 5.24707C7.7789 5.24707 6.40747 5.70045 5.27624 6.54017C4.14501 7.37989 3.31404 8.56136 2.90621 9.90988C2.49839 11.2584 2.53536 12.7023 3.01166 14.0282C3.48796 15.3541 4.3783 16.4915 5.55102 17.2722C3.42968 18.0541 1.61801 19.5009 0.386331 21.3968C0.321598 21.493 0.276635 21.6011 0.254054 21.7148C0.231474 21.8286 0.231727 21.9457 0.254798 22.0593C0.27787 22.1729 0.323299 22.2809 0.388447 22.3768C0.453595 22.4727 0.537161 22.5548 0.634287 22.6181C0.731414 22.6815 0.840163 22.7249 0.954215 22.7458C1.06827 22.7668 1.18535 22.7648 1.29865 22.7401C1.41195 22.7155 1.51921 22.6685 1.61419 22.602C1.70918 22.5355 1.79 22.4507 1.85196 22.3527C2.64645 21.1307 3.7336 20.1266 5.01468 19.4315C6.29577 18.7364 7.73021 18.3723 9.18774 18.3723C10.6453 18.3723 12.0797 18.7364 13.3608 19.4315C14.6419 20.1266 15.729 21.1307 16.5235 22.3527C16.6519 22.5434 16.8501 22.676 17.0754 22.7218C17.3007 22.7675 17.535 22.7227 17.7275 22.5971C17.9201 22.4715 18.0555 22.2752 18.1044 22.0506C18.1534 21.826 18.112 21.5911 17.9891 21.3968C16.7575 19.5009 14.9458 18.0541 12.8245 17.2722ZM4.37524 11.8122C4.37524 10.8604 4.65749 9.92996 5.18629 9.13855C5.71509 8.34714 6.4667 7.73031 7.34607 7.36606C8.22544 7.00182 9.19308 6.90651 10.1266 7.0922C11.0601 7.2779 11.9176 7.73624 12.5907 8.40928C13.2637 9.08232 13.7221 9.93983 13.9078 10.8734C14.0935 11.8069 13.9982 12.7745 13.6339 13.6539C13.2697 14.5333 12.6528 15.2849 11.8614 15.8137C11.07 16.3425 10.1396 16.6247 9.18774 16.6247C7.91183 16.6233 6.68859 16.1158 5.78638 15.2136C4.88418 14.3114 4.37668 13.0881 4.37524 11.8122ZM27.3593 22.6075C27.1649 22.7343 26.9282 22.7786 26.7011 22.7308C26.4741 22.6831 26.2753 22.547 26.1485 22.3527C25.355 21.13 24.268 20.1254 22.9866 19.4306C21.7053 18.7358 20.2704 18.3728 18.8127 18.3747C18.5807 18.3747 18.3581 18.2825 18.194 18.1185C18.0299 17.9544 17.9377 17.7318 17.9377 17.4997C17.9377 17.2677 18.0299 17.0451 18.194 16.881C18.3581 16.7169 18.5807 16.6247 18.8127 16.6247C19.5215 16.6241 20.2213 16.4669 20.8622 16.1644C21.5031 15.8619 22.0693 15.4216 22.5204 14.8749C22.9714 14.3282 23.2961 13.6887 23.4713 13.002C23.6465 12.3153 23.6679 11.5983 23.5339 10.9024C23.3999 10.2065 23.1139 9.54871 22.6962 8.97614C22.2786 8.40356 21.7396 7.9303 21.1178 7.59018C20.4961 7.25005 19.8068 7.05144 19.0994 7.00856C18.392 6.96567 17.6839 7.07955 17.0256 7.34208C16.9182 7.38848 16.8027 7.41289 16.6857 7.41388C16.5688 7.41487 16.4529 7.39241 16.3448 7.34783C16.2367 7.30325 16.1386 7.23746 16.0564 7.15433C15.9741 7.07121 15.9094 6.97245 15.8659 6.86388C15.8225 6.75531 15.8013 6.63913 15.8035 6.52222C15.8057 6.40531 15.8314 6.29003 15.8789 6.1832C15.9265 6.07636 15.9949 5.98014 16.0803 5.90021C16.1656 5.82029 16.2661 5.75828 16.3759 5.71786C17.8825 5.11701 19.5582 5.09539 21.0798 5.65716C22.6014 6.21894 23.861 7.32431 24.6157 8.76003C25.3704 10.1958 25.5667 11.8601 25.1667 13.432C24.7666 15.0039 23.7986 16.3719 22.4495 17.2722C24.5708 18.0541 26.3825 19.5009 27.6141 21.3968C27.7409 21.5911 27.7852 21.8279 27.7374 22.0549C27.6897 22.282 27.5536 22.4808 27.3593 22.6075Z" fill="#566FE9"/>
</svg>
