<svg width="17" height="15" viewBox="0 0 17 15" fill="none" xmlns="http://www.w3.org/2000/svg">
<path d="M11.3469 5.72969L7.59688 3.22969C7.50273 3.16687 7.39329 3.1308 7.28024 3.12533C7.1672 3.11985 7.05479 3.14517 6.95501 3.19859C6.85523 3.25201 6.77183 3.33152 6.71371 3.42863C6.65559 3.52575 6.62493 3.63682 6.625 3.75V8.75C6.62493 8.86318 6.65559 8.97425 6.71371 9.07137C6.77183 9.16848 6.85523 9.24799 6.95501 9.30141C7.05479 9.35483 7.1672 9.38015 7.28024 9.37467C7.39329 9.3692 7.50273 9.33313 7.59688 9.27031L11.3469 6.77031C11.4326 6.71326 11.5029 6.63591 11.5515 6.54513C11.6002 6.45436 11.6256 6.35298 11.6256 6.25C11.6256 6.14702 11.6002 6.04564 11.5515 5.95487C11.5029 5.86409 11.4326 5.78674 11.3469 5.72969ZM7.875 7.58203V4.92188L9.87344 6.25L7.875 7.58203ZM15.375 0.625H1.625C1.29348 0.625 0.975537 0.756696 0.741116 0.991116C0.506696 1.22554 0.375 1.54348 0.375 1.875V10.625C0.375 10.9565 0.506696 11.2745 0.741116 11.5089C0.975537 11.7433 1.29348 11.875 1.625 11.875H15.375C15.7065 11.875 16.0245 11.7433 16.2589 11.5089C16.4933 11.2745 16.625 10.9565 16.625 10.625V1.875C16.625 1.54348 16.4933 1.22554 16.2589 0.991116C16.0245 0.756696 15.7065 0.625 15.375 0.625ZM15.375 10.625H1.625V1.875H15.375V10.625ZM16.625 13.75C16.625 13.9158 16.5592 14.0747 16.4419 14.1919C16.3247 14.3092 16.1658 14.375 16 14.375H1C0.83424 14.375 0.675268 14.3092 0.558058 14.1919C0.440848 14.0747 0.375 13.9158 0.375 13.75C0.375 13.5842 0.440848 13.4253 0.558058 13.3081C0.675268 13.1908 0.83424 13.125 1 13.125H16C16.1658 13.125 16.3247 13.1908 16.4419 13.3081C16.5592 13.4253 16.625 13.5842 16.625 13.75Z" fill="#566FE9" fill-opacity="0.8"/>
</svg>
