<svg width="21" height="21" viewBox="0 0 21 21" fill="none" xmlns="http://www.w3.org/2000/svg">
<path d="M13.3469 8.72969L9.59688 6.22969C9.50273 6.16687 9.39329 6.1308 9.28024 6.12533C9.1672 6.11985 9.05479 6.14517 8.95501 6.19859C8.85523 6.25201 8.77183 6.33152 8.71371 6.42863C8.65559 6.52575 8.62493 6.63682 8.625 6.75V11.75C8.62493 11.8632 8.65559 11.9743 8.71371 12.0714C8.77183 12.1685 8.85523 12.248 8.95501 12.3014C9.05479 12.3548 9.1672 12.3801 9.28024 12.3747C9.39329 12.3692 9.50273 12.3331 9.59688 12.2703L13.3469 9.77031C13.4326 9.71326 13.5029 9.63591 13.5515 9.54513C13.6002 9.45436 13.6256 9.35298 13.6256 9.25C13.6256 9.14702 13.6002 9.04564 13.5515 8.95487C13.5029 8.86409 13.4326 8.78674 13.3469 8.72969ZM9.875 10.582V7.92188L11.8734 9.25L9.875 10.582ZM17.375 3.625H3.625C3.29348 3.625 2.97554 3.7567 2.74112 3.99112C2.5067 4.22554 2.375 4.54348 2.375 4.875V13.625C2.375 13.9565 2.5067 14.2745 2.74112 14.5089C2.97554 14.7433 3.29348 14.875 3.625 14.875H17.375C17.7065 14.875 18.0245 14.7433 18.2589 14.5089C18.4933 14.2745 18.625 13.9565 18.625 13.625V4.875C18.625 4.54348 18.4933 4.22554 18.2589 3.99112C18.0245 3.7567 17.7065 3.625 17.375 3.625ZM17.375 13.625H3.625V4.875H17.375V13.625ZM18.625 16.75C18.625 16.9158 18.5592 17.0747 18.4419 17.1919C18.3247 17.3092 18.1658 17.375 18 17.375H3C2.83424 17.375 2.67527 17.3092 2.55806 17.1919C2.44085 17.0747 2.375 16.9158 2.375 16.75C2.375 16.5842 2.44085 16.4253 2.55806 16.3081C2.67527 16.1908 2.83424 16.125 3 16.125H18C18.1658 16.125 18.3247 16.1908 18.4419 16.3081C18.5592 16.4253 18.625 16.5842 18.625 16.75Z" fill="white"/>
</svg>
