<svg width="21" height="21" viewBox="0 0 21 21" fill="none" xmlns="http://www.w3.org/2000/svg">
<path d="M19.25 15.5H18.625V13.625C18.625 13.4592 18.5592 13.3003 18.4419 13.1831C18.3247 13.0658 18.1658 13 18 13H13C12.8342 13 12.6753 13.0658 12.5581 13.1831C12.4408 13.3003 12.375 13.4592 12.375 13.625V15.5H3.625V4.875H17.375V11.125C17.375 11.2908 17.4408 11.4497 17.5581 11.5669C17.6753 11.6842 17.8342 11.75 18 11.75C18.1658 11.75 18.3247 11.6842 18.4419 11.5669C18.5592 11.4497 18.625 11.2908 18.625 11.125V4.875C18.625 4.54348 18.4933 4.22554 18.2589 3.99112C18.0245 3.7567 17.7065 3.625 17.375 3.625H3.625C3.29348 3.625 2.97554 3.7567 2.74112 3.99112C2.5067 4.22554 2.375 4.54348 2.375 4.875V15.5H1.75C1.58424 15.5 1.42527 15.5658 1.30806 15.6831C1.19085 15.8003 1.125 15.9592 1.125 16.125C1.125 16.2908 1.19085 16.4497 1.30806 16.5669C1.42527 16.6842 1.58424 16.75 1.75 16.75H19.25C19.4158 16.75 19.5747 16.6842 19.6919 16.5669C19.8092 16.4497 19.875 16.2908 19.875 16.125C19.875 15.9592 19.8092 15.8003 19.6919 15.6831C19.5747 15.5658 19.4158 15.5 19.25 15.5ZM13.625 14.25H17.375V15.5H13.625V14.25Z" fill="white"/>
</svg>
