<svg width="19" height="14" viewBox="0 0 19 14" fill="none" xmlns="http://www.w3.org/2000/svg">
<path d="M18.25 12.5H17.625V10.625C17.625 10.4592 17.5592 10.3003 17.4419 10.1831C17.3247 10.0658 17.1658 10 17 10H12C11.8342 10 11.6753 10.0658 11.5581 10.1831C11.4408 10.3003 11.375 10.4592 11.375 10.625V12.5H2.625V1.875H16.375V8.125C16.375 8.29076 16.4408 8.44973 16.5581 8.56694C16.6753 8.68415 16.8342 8.75 17 8.75C17.1658 8.75 17.3247 8.68415 17.4419 8.56694C17.5592 8.44973 17.625 8.29076 17.625 8.125V1.875C17.625 1.54348 17.4933 1.22554 17.2589 0.991116C17.0245 0.756696 16.7065 0.625 16.375 0.625H2.625C2.29348 0.625 1.97554 0.756696 1.74112 0.991116C1.5067 1.22554 1.375 1.54348 1.375 1.875V12.5H0.75C0.58424 12.5 0.425268 12.5658 0.308058 12.6831C0.190848 12.8003 0.125 12.9592 0.125 13.125C0.125 13.2908 0.190848 13.4497 0.308058 13.5669C0.425268 13.6842 0.58424 13.75 0.75 13.75H18.25C18.4158 13.75 18.5747 13.6842 18.6919 13.5669C18.8092 13.4497 18.875 13.2908 18.875 13.125C18.875 12.9592 18.8092 12.8003 18.6919 12.6831C18.5747 12.5658 18.4158 12.5 18.25 12.5ZM12.625 11.25H16.375V12.5H12.625V11.25Z" fill="#566FE9" fill-opacity="0.8"/>
</svg>
